<svg width="249" height="65" viewBox="0 0 249 65" fill="none" xmlns="http://www.w3.org/2000/svg">
<path d="M0 26.1472C0 24.3191 0.5 22.7644 1.5 21.4832C2.51562 20.2019 3.89844 19.155 5.64844 18.3425C7.39844 17.5144 9.4375 16.9128 11.7656 16.5378C14.0938 16.1628 16.5859 15.9753 19.2422 15.9753C20.5078 15.9753 21.7422 15.991 22.9453 16.0222C24.1484 16.0378 25.2422 16.0691 26.2266 16.116C27.2266 16.1628 28.0859 16.2175 28.8047 16.28C29.5234 16.3425 30.0469 16.4128 30.375 16.491C30.6875 16.5691 30.9375 16.655 31.125 16.7488C31.3125 16.8425 31.4531 16.9519 31.5469 17.0769C31.6406 17.2019 31.7031 17.3503 31.7344 17.5222C31.7656 17.6785 31.7812 17.866 31.7812 18.0847C31.7812 18.2722 31.7578 18.4832 31.7109 18.7175C31.6641 18.9363 31.5938 19.1472 31.5 19.3503C31.4062 19.5378 31.2891 19.7019 31.1484 19.8425C31.0078 19.9832 30.8359 20.0535 30.6328 20.0535C30.5078 20.0535 30.3672 19.9988 30.2109 19.8894C30.0703 19.78 29.8594 19.6394 29.5781 19.4675C29.3125 19.2957 28.9453 19.116 28.4766 18.9285C28.0234 18.741 27.4062 18.5613 26.625 18.3894C25.8594 18.2175 24.8984 18.0769 23.7422 17.9675C22.6016 17.8582 21.2188 17.8035 19.5938 17.8035V32.8269H29.3203V34.8894H19.5938V44.0535C19.5938 44.7878 19.7031 45.4207 19.9219 45.9519C20.1406 46.4675 20.4531 46.8972 20.8594 47.241C21.2656 47.5847 21.75 47.8347 22.3125 47.991C22.8906 48.1472 23.5312 48.2253 24.2344 48.2253C25.0312 48.2253 25.8281 48.1472 26.625 47.991C27.4219 47.8191 28.1719 47.6082 28.875 47.3582C29.5938 47.1082 30.2422 46.8269 30.8203 46.5144C31.4141 46.2019 31.8906 45.8972 32.25 45.6003L33.1641 46.6082C32.7734 46.9207 32.25 47.3503 31.5938 47.8972C30.9375 48.4285 30.1328 48.9519 29.1797 49.4675C28.2422 49.9832 27.1406 50.4363 25.875 50.8269C24.625 51.2019 23.2031 51.3894 21.6094 51.3894C21.0781 51.3894 20.4688 51.3582 19.7812 51.2957C19.1094 51.2488 18.4141 51.1472 17.6953 50.991C16.9766 50.8191 16.2656 50.5769 15.5625 50.2644C14.875 49.9363 14.2578 49.5066 13.7109 48.9753C13.1797 48.4441 12.7422 47.7957 12.3984 47.03C12.0703 46.2488 11.9062 45.3191 11.9062 44.241V34.8894H8.25V32.8269H11.9062V18.0847C11.4062 18.1316 10.8281 18.2253 10.1719 18.366C9.53125 18.491 8.86719 18.6785 8.17969 18.9285C7.50781 19.1628 6.84375 19.4441 6.1875 19.7722C5.53125 20.1003 4.94531 20.4832 4.42969 20.9207C3.91406 21.3582 3.49219 21.8503 3.16406 22.3972C2.85156 22.9285 2.69531 23.5066 2.69531 24.1316C2.69531 24.6316 2.75781 25.03 2.88281 25.3269C3.02344 25.6238 3.17969 25.8503 3.35156 26.0066C3.52344 26.1472 3.69531 26.241 3.86719 26.2878C4.05469 26.3191 4.1875 26.3347 4.26562 26.3347C4.65625 26.3347 4.97656 26.2722 5.22656 26.1472C5.47656 26.0066 5.70312 25.866 5.90625 25.7253C6.10938 25.5691 6.29688 25.4285 6.46875 25.3035C6.65625 25.1628 6.86719 25.0925 7.10156 25.0925C7.28906 25.0925 7.48438 25.1394 7.6875 25.2332C7.90625 25.3113 8.10156 25.4441 8.27344 25.6316C8.46094 25.8191 8.61719 26.0691 8.74219 26.3816C8.86719 26.6785 8.92969 27.0457 8.92969 27.4832C8.92969 28.1082 8.80469 28.655 8.55469 29.1238C8.32031 29.5769 8.00781 29.9519 7.61719 30.2488C7.24219 30.5457 6.80469 30.7722 6.30469 30.9285C5.82031 31.0691 5.33594 31.1394 4.85156 31.1394C4.10156 31.1394 3.42188 31.0144 2.8125 30.7644C2.21875 30.4988 1.71094 30.1394 1.28906 29.6863C0.867188 29.2332 0.546875 28.7097 0.328125 28.116C0.109375 27.5066 0 26.8503 0 26.1472ZM35.4844 31.0925C35.3906 30.4675 35.2344 29.9832 35.0156 29.6394C34.8125 29.2957 34.4609 29.1238 33.9609 29.1238C33.6953 29.1238 33.4609 29.1707 33.2578 29.2644C33.0703 29.3582 32.8672 29.491 32.6484 29.6628L32.1797 29.0769C32.5391 28.78 32.9375 28.491 33.375 28.2097C33.8281 27.9128 34.3125 27.655 34.8281 27.4363C35.3438 27.2175 35.8984 27.0378 36.4922 26.8972C37.0859 26.7566 37.7109 26.6863 38.3672 26.6863C39.3047 26.6863 40.0625 26.8503 40.6406 27.1785C41.2188 27.491 41.6719 27.8894 42 28.3738C42.3438 28.8425 42.5859 29.3503 42.7266 29.8972C42.8672 30.4441 42.9688 30.9363 43.0312 31.3738C43.6094 36.1082 44.2578 39.6941 44.9766 42.1316C45.6953 44.5691 46.5469 45.7878 47.5312 45.7878C48.0781 45.7878 48.6016 45.491 49.1016 44.8972C49.6172 44.3035 50.0625 43.491 50.4375 42.4597C50.8281 41.4285 51.1406 40.2253 51.375 38.8503C51.6094 37.4753 51.7266 36.0066 51.7266 34.4441C51.7266 33.4128 51.6562 32.5457 51.5156 31.8425C51.375 31.1238 51.2188 30.5222 51.0469 30.0378C50.875 29.5535 50.7188 29.155 50.5781 28.8425C50.4375 28.5144 50.3672 28.2253 50.3672 27.9753C50.3672 27.741 50.4609 27.5457 50.6484 27.3894C50.8359 27.2332 51.0547 27.1003 51.3047 26.991C51.5703 26.8816 51.8359 26.8035 52.1016 26.7566C52.3828 26.7097 52.6094 26.6863 52.7812 26.6863C53.2344 26.6863 53.5625 26.7488 53.7656 26.8738C53.9688 26.9988 54.1328 27.241 54.2578 27.6003C54.3984 28.0535 54.4922 28.655 54.5391 29.405C54.6016 30.1394 54.6328 30.9285 54.6328 31.7722C54.6328 32.9753 54.5469 34.2957 54.375 35.7332C54.2188 37.1707 53.9688 38.616 53.625 40.0691C53.2969 41.5222 52.875 42.9285 52.3594 44.2878C51.8438 45.6472 51.2266 46.8582 50.5078 47.9207C49.8047 48.9675 49 49.8113 48.0938 50.4519C47.2031 51.0769 46.2031 51.3894 45.0938 51.3894C43.7969 51.3894 42.6719 51.0144 41.7188 50.2644C40.7656 49.5144 39.9531 48.5378 39.2812 47.3347C38.625 46.1316 38.0781 44.78 37.6406 43.28C37.2031 41.78 36.8438 40.28 36.5625 38.78C36.2969 37.2644 36.0781 35.8347 35.9062 34.491C35.75 33.1316 35.6094 31.9988 35.4844 31.0925ZM64.6172 40.2566C64.6172 40.7566 64.6875 41.3035 64.8281 41.8972C64.9844 42.4753 65.2031 43.0613 65.4844 43.655C65.7656 44.2488 66.1094 44.8191 66.5156 45.366C66.9375 45.8972 67.4141 46.3738 67.9453 46.7957C68.4922 47.2175 69.0938 47.5535 69.75 47.8035C70.4062 48.0535 71.125 48.1785 71.9062 48.1785C72.4531 48.1785 72.9609 48.116 73.4297 47.991C73.8984 47.866 74.3359 47.6941 74.7422 47.4753C75.1484 47.2566 75.5391 47.0066 75.9141 46.7253C76.2891 46.4285 76.6641 46.116 77.0391 45.7878L77.625 46.3503C77.2656 46.8347 76.8047 47.366 76.2422 47.9441C75.6797 48.5222 75 49.0691 74.2031 49.5847C73.4062 50.0847 72.4766 50.5066 71.4141 50.8503C70.3516 51.1785 69.1406 51.3425 67.7812 51.3425C66.4219 51.3425 65.0938 51.1003 63.7969 50.616C62.5156 50.116 61.375 49.3738 60.375 48.3894C59.375 47.405 58.5703 46.1785 57.9609 44.7097C57.3672 43.241 57.0703 41.5222 57.0703 39.5535C57.0703 38.1316 57.25 36.8269 57.6094 35.6394C57.9688 34.4519 58.4531 33.3816 59.0625 32.4285C59.6875 31.4753 60.4062 30.6394 61.2188 29.9207C62.0469 29.2019 62.9141 28.6082 63.8203 28.1394C64.7266 27.655 65.6484 27.2957 66.5859 27.0613C67.5391 26.8113 68.4531 26.6863 69.3281 26.6863C70.4844 26.6863 71.4922 26.8113 72.3516 27.0613C73.2109 27.3113 73.9219 27.6472 74.4844 28.0691C75.0625 28.491 75.4922 28.9832 75.7734 29.5457C76.0547 30.0925 76.1953 30.6707 76.1953 31.28C76.1953 32.0144 75.9844 32.6785 75.5625 33.2722C75.1406 33.8503 74.5781 34.3582 73.875 34.7957L64.6172 40.2566ZM69.3281 35.4988C69.5312 35.3738 69.6953 35.2566 69.8203 35.1472C69.9609 35.0222 70.0703 34.8816 70.1484 34.7253C70.2266 34.5535 70.2812 34.3503 70.3125 34.116C70.3594 33.866 70.3828 33.5613 70.3828 33.2019C70.3828 32.8113 70.3359 32.3816 70.2422 31.9128C70.1641 31.4285 70.0234 30.9753 69.8203 30.5535C69.6172 30.1316 69.3594 29.78 69.0469 29.4988C68.7344 29.2175 68.3594 29.0769 67.9219 29.0769C67.3594 29.0769 66.875 29.2488 66.4688 29.5925C66.0781 29.9207 65.75 30.3503 65.4844 30.8816C65.2344 31.4128 65.0312 32.0222 64.875 32.7097C64.7344 33.3816 64.625 34.0613 64.5469 34.7488C64.4688 35.4363 64.4219 36.1003 64.4062 36.741C64.3906 37.366 64.3828 37.8972 64.3828 38.3347L69.3281 35.4988ZM94.5703 39.3425C94.5703 37.3738 94.4766 35.8035 94.2891 34.6316C94.1172 33.4441 93.8828 32.5457 93.5859 31.9363C93.2891 31.3113 92.9609 30.905 92.6016 30.7175C92.2422 30.5144 91.875 30.4128 91.5 30.4128C91.0469 30.4128 90.6406 30.5378 90.2812 30.7878C89.9375 31.0222 89.6328 31.2957 89.3672 31.6082C89.1172 31.9207 88.8984 32.2332 88.7109 32.5457C88.5391 32.8582 88.3906 33.0925 88.2656 33.2488V48.905C88.2656 49.1082 88.2344 49.3582 88.1719 49.655C88.1094 49.9363 87.9531 50.2097 87.7031 50.4753C87.4688 50.7253 87.1094 50.9363 86.625 51.1082C86.1562 51.2957 85.5078 51.3894 84.6797 51.3894C83.8516 51.3894 83.1953 51.2878 82.7109 51.0847C82.2422 50.8972 81.8828 50.6707 81.6328 50.405C81.3828 50.1394 81.2266 49.866 81.1641 49.5847C81.1016 49.3035 81.0703 49.0769 81.0703 48.905V30.8113C81.0703 30.3582 80.9609 29.9675 80.7422 29.6394C80.5391 29.2957 80.1875 29.1238 79.6875 29.1238C79.4219 29.1238 79.1953 29.1707 79.0078 29.2644C78.8203 29.3582 78.6172 29.491 78.3984 29.6628L77.9062 29.0769C78.2656 28.78 78.6641 28.491 79.1016 28.2097C79.5547 27.9128 80.0391 27.655 80.5547 27.4363C81.0703 27.2175 81.625 27.0378 82.2188 26.8972C82.8125 26.7566 83.4375 26.6863 84.0938 26.6863C85.1094 26.6863 85.8984 26.8582 86.4609 27.2019C87.0234 27.53 87.4375 27.9285 87.7031 28.3972C87.9688 28.866 88.125 29.3582 88.1719 29.8738C88.2344 30.3738 88.2656 30.7957 88.2656 31.1394C88.8438 30.3113 89.5 29.5691 90.2344 28.9128C90.5312 28.6316 90.8594 28.3582 91.2188 28.0925C91.5938 27.8269 91.9844 27.5925 92.3906 27.3894C92.8125 27.1707 93.25 26.9988 93.7031 26.8738C94.1719 26.7488 94.6484 26.6863 95.1328 26.6863C96.1953 26.6863 97.1328 26.8894 97.9453 27.2957C98.7734 27.7019 99.4688 28.3816 100.031 29.3347C100.594 30.2878 101.023 31.5535 101.32 33.1316C101.617 34.6941 101.766 36.6394 101.766 38.9675C101.766 41.2332 101.562 43.2019 101.156 44.8738C100.75 46.5457 100.219 47.9675 99.5625 49.1394C98.9062 50.3113 98.1641 51.2644 97.3359 51.9988C96.5078 52.7488 95.6719 53.3347 94.8281 53.7566C93.9844 54.1785 93.1719 54.4675 92.3906 54.6238C91.625 54.7957 90.9609 54.8894 90.3984 54.905L90.1406 53.9441C90.6094 53.8347 91.0391 53.6628 91.4297 53.4285C91.8359 53.1941 92.2031 52.8503 92.5312 52.3972C92.8594 51.9441 93.1484 51.3738 93.3984 50.6863C93.6484 49.9832 93.8594 49.1082 94.0312 48.0613C94.2188 47.0144 94.3516 45.78 94.4297 44.3582C94.5234 42.9207 94.5703 41.2488 94.5703 39.3425ZM190.008 28.7019V46.0222C190.008 46.8503 190.164 47.4285 190.477 47.7566C190.789 48.0691 191.219 48.2253 191.766 48.2253C192.188 48.2253 192.562 48.1082 192.891 47.8738C193.219 47.6394 193.5 47.3738 193.734 47.0769C194.016 46.7488 194.258 46.366 194.461 45.9285L195.188 46.2566C194.953 46.7566 194.672 47.3035 194.344 47.8972C194.031 48.491 193.609 49.0457 193.078 49.5613C192.547 50.0613 191.875 50.4832 191.062 50.8269C190.266 51.1707 189.258 51.3425 188.039 51.3425C187.352 51.3425 186.688 51.241 186.047 51.0378C185.422 50.8347 184.859 50.5144 184.359 50.0769C183.875 49.6394 183.484 49.0925 183.188 48.4363C182.891 47.78 182.742 46.991 182.742 46.0691V28.7019H180.117V27.0144C180.555 27.0144 181.164 26.905 181.945 26.6863C182.727 26.4519 183.523 26.0691 184.336 25.5378C185.164 25.0066 185.93 24.2957 186.633 23.405C187.336 22.5144 187.836 21.4128 188.133 20.1003H190.008V27.0144H193.828C195.078 27.0144 195.703 26.8035 195.703 26.3816C195.703 26.2253 195.625 26.1238 195.469 26.0769C195.312 26.0144 195.133 25.9441 194.93 25.866C194.742 25.7722 194.57 25.6472 194.414 25.491C194.258 25.3347 194.18 25.0769 194.18 24.7175C194.18 24.28 194.312 23.9363 194.578 23.6863C194.859 23.4363 195.219 23.3113 195.656 23.3113C195.938 23.3113 196.18 23.3738 196.383 23.4988C196.602 23.6082 196.781 23.7644 196.922 23.9675C197.062 24.155 197.164 24.3738 197.227 24.6238C197.305 24.8738 197.344 25.1238 197.344 25.3738C197.344 26.3894 197.047 27.2019 196.453 27.8113C195.875 28.405 194.938 28.7019 193.641 28.7019H190.008ZM206.531 48.905C206.531 49.1082 206.492 49.3582 206.414 49.655C206.352 49.9363 206.188 50.2097 205.922 50.4753C205.672 50.7253 205.305 50.9363 204.82 51.1082C204.336 51.2957 203.68 51.3894 202.852 51.3894C202.023 51.3894 201.375 51.2878 200.906 51.0847C200.438 50.8972 200.086 50.6707 199.852 50.405C199.617 50.1394 199.469 49.866 199.406 49.5847C199.359 49.3035 199.336 49.0769 199.336 48.905V30.8113C199.336 30.3582 199.227 29.9675 199.008 29.6394C198.805 29.2957 198.453 29.1238 197.953 29.1238C197.688 29.1238 197.461 29.1707 197.273 29.2644C197.086 29.3582 196.883 29.491 196.664 29.6628L196.172 29.0769C196.531 28.78 196.93 28.491 197.367 28.2097C197.82 27.9128 198.305 27.655 198.82 27.4363C199.336 27.2175 199.891 27.0378 200.484 26.8972C201.078 26.7566 201.703 26.6863 202.359 26.6863C203.375 26.6863 204.164 26.8269 204.727 27.1082C205.289 27.3738 205.703 27.7097 205.969 28.116C206.234 28.5066 206.391 28.9285 206.438 29.3816C206.5 29.8347 206.531 30.2332 206.531 30.5769V48.905ZM198.609 21.3425C198.609 20.905 198.703 20.491 198.891 20.1003C199.094 19.6941 199.367 19.3425 199.711 19.0457C200.07 18.7488 200.477 18.5144 200.93 18.3425C201.398 18.1707 201.906 18.0847 202.453 18.0847C202.984 18.0847 203.477 18.1707 203.93 18.3425C204.398 18.5144 204.805 18.7488 205.148 19.0457C205.492 19.3425 205.758 19.6941 205.945 20.1003C206.148 20.491 206.25 20.905 206.25 21.3425C206.25 21.7957 206.148 22.2175 205.945 22.6082C205.758 22.9988 205.492 23.3425 205.148 23.6394C204.805 23.9207 204.398 24.1472 203.93 24.3191C203.477 24.491 202.984 24.5769 202.453 24.5769C201.906 24.5769 201.398 24.491 200.93 24.3191C200.477 24.1472 200.07 23.9207 199.711 23.6394C199.367 23.3425 199.094 22.9988 198.891 22.6082C198.703 22.2175 198.609 21.7957 198.609 21.3425ZM224.016 16.1628C223.578 16.1628 223.164 16.2566 222.773 16.4441C222.383 16.6316 222.039 16.9363 221.742 17.3582C221.461 17.7644 221.234 18.2878 221.062 18.9285C220.891 19.5691 220.805 20.3425 220.805 21.2488V27.0144H225.938V28.7019H220.805V47.1707C220.805 49.2957 220.523 51.2566 219.961 53.0535C219.414 54.8503 218.578 56.3972 217.453 57.6941C216.328 59.0066 214.922 60.03 213.234 60.7644C211.547 61.4988 209.578 61.866 207.328 61.866C206.531 61.866 205.766 61.7957 205.031 61.655C204.297 61.53 203.648 61.3503 203.086 61.116C202.523 60.8816 202.078 60.6003 201.75 60.2722C201.406 59.9597 201.234 59.6082 201.234 59.2175C201.234 58.9363 201.273 58.6472 201.352 58.3503C201.43 58.0691 201.547 57.8113 201.703 57.5769C201.859 57.3425 202.055 57.1472 202.289 56.991C202.508 56.8503 202.766 56.78 203.062 56.78C203.234 56.78 203.391 56.866 203.531 57.0378C203.656 57.2097 203.789 57.4207 203.93 57.6707C204.07 57.9207 204.234 58.1941 204.422 58.491C204.594 58.8035 204.82 59.0847 205.102 59.3347C205.383 59.5847 205.734 59.7957 206.156 59.9675C206.562 60.1394 207.062 60.2253 207.656 60.2253C208.453 60.2253 209.156 60.0613 209.766 59.7332C210.375 59.4207 210.898 58.9832 211.336 58.4207C211.773 57.8582 212.141 57.1941 212.438 56.4285C212.734 55.6628 212.969 54.8425 213.141 53.9675C213.312 53.0925 213.43 52.1785 213.492 51.2253C213.57 50.2722 213.609 49.3191 213.609 48.366V28.7019H209.297V27.0144H213.609V24.2722C213.609 22.8972 213.773 21.7019 214.102 20.6863C214.445 19.655 214.891 18.78 215.438 18.0613C216 17.3425 216.633 16.7566 217.336 16.3035C218.039 15.8503 218.75 15.491 219.469 15.2253C220.203 14.9597 220.914 14.78 221.602 14.6863C222.289 14.5925 222.891 14.5457 223.406 14.5457C224.516 14.5457 225.5 14.6316 226.359 14.8035C227.219 14.9597 227.938 15.1785 228.516 15.4597C229.094 15.7253 229.531 16.0378 229.828 16.3972C230.125 16.7566 230.273 17.1238 230.273 17.4988C230.273 17.78 230.227 18.0691 230.133 18.366C230.055 18.6472 229.938 18.9128 229.781 19.1628C229.625 19.3972 229.43 19.5925 229.195 19.7488C228.977 19.8894 228.727 19.9597 228.445 19.9597C228.273 19.9597 228.117 19.866 227.977 19.6785C227.836 19.491 227.688 19.2566 227.531 18.9753C227.375 18.6941 227.203 18.3894 227.016 18.0613C226.828 17.7332 226.594 17.4285 226.312 17.1472C226.047 16.866 225.727 16.6316 225.352 16.4441C224.977 16.2566 224.531 16.1628 224.016 16.1628ZM246.75 30.366C246.75 33.2253 246.469 35.991 245.906 38.6628C245.359 41.3191 244.594 43.8191 243.609 46.1628C242.641 48.491 241.484 50.616 240.141 52.5378C238.797 54.4753 237.336 56.1316 235.758 57.5066C234.18 58.8816 232.508 59.9519 230.742 60.7175C228.992 61.4832 227.219 61.866 225.422 61.866C224.047 61.866 222.984 61.6316 222.234 61.1628C221.484 60.7097 221.109 60.0925 221.109 59.3113C221.109 59.0144 221.156 58.7253 221.25 58.4441C221.344 58.1628 221.469 57.9128 221.625 57.6941C221.781 57.4753 221.969 57.2957 222.188 57.155C222.406 57.03 222.641 56.9675 222.891 56.9675C223.188 56.9675 223.438 57.116 223.641 57.4128C223.828 57.7097 224.031 58.03 224.25 58.3738C224.469 58.7332 224.734 59.0613 225.047 59.3582C225.359 59.655 225.789 59.8035 226.336 59.8035C227.039 59.8035 227.773 59.6785 228.539 59.4285C229.305 59.1941 230.07 58.8503 230.836 58.3972C231.617 57.9441 232.391 57.3894 233.156 56.7332C233.938 56.0925 234.703 55.3738 235.453 54.5769C235.016 52.9988 234.508 51.28 233.93 49.4207C233.367 47.5457 232.766 45.6628 232.125 43.7722C231.5 41.8816 230.852 40.0613 230.18 38.3113C229.523 36.5457 228.875 34.9832 228.234 33.6238C227.609 32.2644 227 31.1785 226.406 30.366C225.828 29.5378 225.312 29.1238 224.859 29.1238C224.562 29.1238 224.336 29.1707 224.18 29.2644C224.008 29.3582 223.812 29.491 223.594 29.6628L223.125 29.0769C223.438 28.8113 223.766 28.5378 224.109 28.2566C224.453 27.9753 224.859 27.7175 225.328 27.4832C225.797 27.2488 226.344 27.0613 226.969 26.9207C227.594 26.7644 228.344 26.6863 229.219 26.6863C230.172 26.6863 231.055 26.905 231.867 27.3425C232.695 27.7644 233.445 28.5535 234.117 29.7097C234.602 30.5691 235.102 31.6003 235.617 32.8035C236.148 34.0066 236.68 35.3503 237.211 36.8347C237.742 38.3191 238.273 39.9285 238.805 41.6628C239.352 43.3816 239.898 45.1863 240.445 47.0769C241.414 45.0457 242.195 42.8972 242.789 40.6316C243.383 38.3503 243.68 36.0066 243.68 33.6003C243.68 32.741 243.625 32.0066 243.516 31.3972C243.406 30.7878 243.281 30.2722 243.141 29.8503C243 29.4128 242.875 29.0457 242.766 28.7488C242.656 28.4363 242.602 28.1628 242.602 27.9285C242.602 27.6941 242.695 27.4988 242.883 27.3425C243.07 27.1707 243.297 27.0378 243.562 26.9441C243.828 26.8503 244.094 26.7878 244.359 26.7566C244.641 26.7097 244.875 26.6863 245.062 26.6863C245.484 26.6863 245.805 26.7722 246.023 26.9441C246.258 27.116 246.43 27.366 246.539 27.6941C246.648 28.0066 246.711 28.3894 246.727 28.8425C246.742 29.2957 246.75 29.8035 246.75 30.366Z" fill="#212861"/>
<path d="M124.25 6.21866H129.75V3.42153C129.75 2.67968 130.04 1.96822 130.555 1.44365C131.071 0.919087 131.771 0.62439 132.5 0.62439C133.229 0.62439 133.929 0.919087 134.445 1.44365C134.96 1.96822 135.25 2.67968 135.25 3.42153V6.21866H151.75V3.42153C151.75 2.67968 152.04 1.96822 152.555 1.44365C153.071 0.919087 153.771 0.62439 154.5 0.62439C155.229 0.62439 155.929 0.919087 156.445 1.44365C156.96 1.96822 157.25 2.67968 157.25 3.42153V6.21866H162.75C164.938 6.21866 167.036 7.10276 168.584 8.67645C170.131 10.2501 171 12.3845 171 14.6101V48.1757C171 50.4013 170.131 52.5356 168.584 54.1093C167.036 55.683 164.938 56.5671 162.75 56.5671H124.25C122.062 56.5671 119.964 55.683 118.416 54.1093C116.869 52.5356 116 50.4013 116 48.1757V14.6101C116 12.3845 116.869 10.2501 118.416 8.67645C119.964 7.10276 122.062 6.21866 124.25 6.21866ZM121.5 48.1757C121.5 48.9176 121.79 49.629 122.305 50.1536C122.821 50.6782 123.521 50.9729 124.25 50.9729H162.75C163.479 50.9729 164.179 50.6782 164.695 50.1536C165.21 49.629 165.5 48.9176 165.5 48.1757V28.5958H121.5V48.1757ZM121.5 23.0015H165.5V14.6101C165.5 13.8682 165.21 13.1568 164.695 12.6322C164.179 12.1076 163.479 11.8129 162.75 11.8129H157.25V14.6101C157.25 15.3519 156.96 16.0634 156.445 16.5879C155.929 17.1125 155.229 17.4072 154.5 17.4072C153.771 17.4072 153.071 17.1125 152.555 16.5879C152.04 16.0634 151.75 15.3519 151.75 14.6101V11.8129H135.25V14.6101C135.25 15.3519 134.96 16.0634 134.445 16.5879C133.929 17.1125 133.229 17.4072 132.5 17.4072C131.771 17.4072 131.071 17.1125 130.555 16.5879C130.04 16.0634 129.75 15.3519 129.75 14.6101V11.8129H124.25C123.521 11.8129 122.821 12.1076 122.305 12.6322C121.79 13.1568 121.5 13.8682 121.5 14.6101V23.0015Z" fill="#5669FF"/>
</svg>
