<svg width="46" height="44" viewBox="0 0 46 44" fill="none" xmlns="http://www.w3.org/2000/svg">
<path d="M6.9 4.35206H11.5V2.17603C11.5 1.59891 11.7423 1.04543 12.1737 0.637344C12.605 0.22926 13.19 0 13.8 0C14.41 0 14.995 0.22926 15.4263 0.637344C15.8577 1.04543 16.1 1.59891 16.1 2.17603V4.35206H29.9V2.17603C29.9 1.59891 30.1423 1.04543 30.5737 0.637344C31.005 0.22926 31.59 0 32.2 0C32.81 0 33.395 0.22926 33.8263 0.637344C34.2577 1.04543 34.5 1.59891 34.5 2.17603V4.35206H39.1C40.93 4.35206 42.685 5.03984 43.979 6.26409C45.273 7.48835 46 9.14879 46 10.8801V36.9925C46 38.7239 45.273 40.3843 43.979 41.6086C42.685 42.8328 40.93 43.5206 39.1 43.5206H6.9C5.07001 43.5206 3.31496 42.8328 2.02096 41.6086C0.726963 40.3843 0 38.7239 0 36.9925V10.8801C0 9.14879 0.726963 7.48835 2.02096 6.26409C3.31496 5.03984 5.07001 4.35206 6.9 4.35206ZM4.6 36.9925C4.6 37.5696 4.84232 38.1231 5.27365 38.5312C5.70499 38.9393 6.29 39.1685 6.9 39.1685H39.1C39.71 39.1685 40.295 38.9393 40.7263 38.5312C41.1577 38.1231 41.4 37.5696 41.4 36.9925V21.7603H4.6V36.9925ZM4.6 17.4082H41.4V10.8801C41.4 10.303 41.1577 9.74955 40.7263 9.34146C40.295 8.93338 39.71 8.70412 39.1 8.70412H34.5V10.8801C34.5 11.4573 34.2577 12.0107 33.8263 12.4188C33.395 12.8269 32.81 13.0562 32.2 13.0562C31.59 13.0562 31.005 12.8269 30.5737 12.4188C30.1423 12.0107 29.9 11.4573 29.9 10.8801V8.70412H16.1V10.8801C16.1 11.4573 15.8577 12.0107 15.4263 12.4188C14.995 12.8269 14.41 13.0562 13.8 13.0562C13.19 13.0562 12.605 12.8269 12.1737 12.4188C11.7423 12.0107 11.5 11.4573 11.5 10.8801V8.70412H6.9C6.29 8.70412 5.70499 8.93338 5.27365 9.34146C4.84232 9.74955 4.6 10.303 4.6 10.8801V17.4082Z" fill="#212861"/>
</svg>
