<svg width="43" height="41" viewBox="0 0 43 41" fill="none" xmlns="http://www.w3.org/2000/svg">
<path d="M6.35903 4.05448H10.5984V2.02724C10.5984 1.48958 10.8217 0.973947 11.2192 0.593765C11.6167 0.213584 12.1559 0 12.7181 0C13.2802 0 13.8194 0.213584 14.2169 0.593765C14.6144 0.973947 14.8377 1.48958 14.8377 2.02724V4.05448H27.5558V2.02724C27.5558 1.48958 27.7791 0.973947 28.1767 0.593765C28.5742 0.213584 29.1133 0 29.6755 0C30.2377 0 30.7768 0.213584 31.1743 0.593765C31.5718 0.973947 31.7952 1.48958 31.7952 2.02724V4.05448H36.0345C37.721 4.05448 39.3385 4.69524 40.531 5.83578C41.7236 6.97633 42.3936 8.52324 42.3936 10.1362V34.4631C42.3936 36.0761 41.7236 37.623 40.531 38.7635C39.3385 39.9041 37.721 40.5448 36.0345 40.5448H6.35903C4.67251 40.5448 3.05507 39.9041 1.86251 38.7635C0.669968 37.623 0 36.0761 0 34.4631V10.1362C0 8.52324 0.669968 6.97633 1.86251 5.83578C3.05507 4.69524 4.67251 4.05448 6.35903 4.05448ZM4.23935 34.4631C4.23935 35.0008 4.46268 35.5164 4.86019 35.8966C5.25771 36.2768 5.79686 36.4904 6.35903 36.4904H36.0345C36.5967 36.4904 37.1358 36.2768 37.5334 35.8966C37.9309 35.5164 38.1542 35.0008 38.1542 34.4631V20.2724H4.23935V34.4631ZM4.23935 16.2179H38.1542V10.1362C38.1542 9.59855 37.9309 9.08292 37.5334 8.70273C37.1358 8.32255 36.5967 8.10897 36.0345 8.10897H31.7952V10.1362C31.7952 10.6739 31.5718 11.1895 31.1743 11.5697C30.7768 11.9499 30.2377 12.1635 29.6755 12.1635C29.1133 12.1635 28.5742 11.9499 28.1767 11.5697C27.7791 11.1895 27.5558 10.6739 27.5558 10.1362V8.10897H14.8377V10.1362C14.8377 10.6739 14.6144 11.1895 14.2169 11.5697C13.8194 11.9499 13.2802 12.1635 12.7181 12.1635C12.1559 12.1635 11.6167 11.9499 11.2192 11.5697C10.8217 11.1895 10.5984 10.6739 10.5984 10.1362V8.10897H6.35903C5.79686 8.10897 5.25771 8.32255 4.86019 8.70273C4.46268 9.08292 4.23935 9.59855 4.23935 10.1362V16.2179Z" fill="#367CFF"/>
</svg>
