<svg width="48" height="48" viewBox="0 0 48 48" fill="none" xmlns="http://www.w3.org/2000/svg">
<path d="M34.6971 27.1147L36.2224 27.6618C37.3914 28.081 38.5844 28.4294 39.795 28.705C40.3866 28.8385 40.9863 28.9498 41.5943 29.0391L41.6598 29.0487L41.7246 29.0626C42.7285 29.2786 43.6248 29.8386 44.2598 30.6448C44.8879 31.4422 45.2218 32.4313 45.2068 33.4451L45.2548 40.9576L45.2549 40.9653L45.2549 40.9729C45.2541 41.599 45.1204 42.2179 44.8625 42.7885C44.6045 43.3592 44.2282 43.8686 43.7581 44.2828L43.7517 44.2885L43.7451 44.2941C43.2653 44.7096 42.7039 45.0202 42.0968 45.2059C41.4896 45.3915 40.8504 45.448 40.22 45.3715L40.2129 45.3707L40.2058 45.3697C30.7432 44.1529 21.9547 39.8114 15.2263 33.0313C8.49794 26.2513 4.21248 17.4186 3.04463 7.92681L3.04286 7.91241L3.04129 7.89799C2.97393 7.27617 3.03295 6.64706 3.21488 6.04859C3.39681 5.45011 3.69795 4.89448 4.10039 4.41537L4.11373 4.3995L4.12739 4.3839C4.54014 3.9127 5.04857 3.53465 5.61908 3.27527C6.18961 3.01587 6.80892 2.8812 7.43577 2.88041L7.43831 2.8804L14.6453 2.88041C15.6631 2.86362 16.6551 3.20016 17.453 3.83234C18.2574 4.46973 18.8141 5.3675 19.0287 6.37044L19.0424 6.43484L19.0519 6.5C19.1411 7.11081 19.2523 7.71331 19.3857 8.30766L19.3881 8.31852L19.3881 8.31853C19.6457 9.49736 19.9885 10.6558 20.4138 11.7846L21.0664 13.5171C21.3197 12.8744 21.3303 12.1605 21.0959 11.5102C20.6841 10.3972 20.3461 9.25812 20.0842 8.10044L34.6971 27.1147ZM34.6971 27.1147C35.3074 26.8982 35.9745 26.8993 36.5857 27.1196C37.6972 27.5407 38.8376 27.881 39.9979 28.1378C40.0465 28.149 40.1086 28.1646 40.1819 28.1829C40.5489 28.2749 41.1969 28.4373 41.8289 28.4704C42.9663 28.7055 43.9956 29.3149 44.7517 30.2052C45.5336 31.126 45.9749 32.2902 45.9999 33.5009L45.9999 40.7288L45.9999 40.7381C46.0034 41.4813 45.8495 42.2166 45.5487 42.8954C45.248 43.5739 44.8075 44.1803 44.2564 44.6747C43.2974 45.5306 42.0588 46.0019 40.7769 46H40.774H39.9834C30.3767 44.7831 21.4414 40.4045 14.5789 33.5471C7.68757 26.6607 3.2794 17.6671 2.05196 7.9866L2.05062 7.97606L2.04917 7.96554C1.94631 7.21798 2.00527 6.457 2.22196 5.7345C2.43866 5.01201 2.8079 4.34526 3.3042 3.77948C3.80049 3.21373 4.41213 2.76227 5.09726 2.45546C5.78238 2.14866 6.52511 1.99362 7.27495 2.00068L7.28437 2.00077H7.29379H14.5197H14.5343L14.5489 2.00055C15.7922 1.98242 17.002 2.41005 17.9602 3.2077C18.9092 3.99768 19.55 5.09944 19.7682 6.31851L34.6971 27.1147ZM32.5759 29.6235L33.1053 28.5375C33.3779 27.9791 33.8244 27.5292 34.3726 27.2533L33.7176 28.7364L32.2347 32.0948C32.2117 32.1412 32.1806 32.1825 32.143 32.2169C32.1028 32.2537 32.0561 32.2818 32.0056 32.2999L31.9619 32.3155L31.919 32.3332C31.8293 32.3702 31.7299 32.3734 31.6385 32.343C24.6681 29.0622 19.064 23.4323 15.8043 16.4316C15.7815 16.3819 15.7685 16.3279 15.7662 16.2727C15.7639 16.2172 15.7726 16.1619 15.7917 16.1101C15.8108 16.0582 15.8397 16.011 15.8766 15.971C15.9135 15.9311 15.9575 15.8991 16.0061 15.8768L16.0061 15.8768L16.0143 15.873L19.3864 14.3028L21.0648 13.5213C21.0629 13.526 21.0611 13.5307 21.0592 13.5354C20.7982 14.1844 20.3078 14.7122 19.6839 15.0185L19.5644 15.0772L19.4538 15.1512L18.4422 15.8276L16.912 16.8506L17.8048 18.4603C19.1985 20.9729 20.9296 23.282 22.9497 25.3228L22.9548 25.328L22.96 25.3331C24.9949 27.3591 27.2976 29.0956 29.8037 30.4937L31.6496 31.5236L32.5759 29.6235Z" fill="white" stroke="white" stroke-width="4"/>
</svg>
