<svg width="34" height="34" viewBox="0 0 34 34" fill="none" xmlns="http://www.w3.org/2000/svg">
<path d="M14.2303 11.6005C14.9692 11.2387 15.5482 10.6164 15.8559 9.85335C16.1636 9.09028 16.1782 8.24038 15.8969 7.4672M14.2303 11.6005L27.5803 33.1172C20.5948 32.2547 14.0957 29.0895 9.1097 24.1216C4.12366 19.1537 0.934842 12.6662 0.0469453 5.68386C-0.0512558 4.97229 0.00501449 4.24792 0.211925 3.56005C0.418836 2.87219 0.77153 2.23698 1.246 1.69767C1.72046 1.15836 2.30556 0.727608 2.96146 0.434746C3.61736 0.141885 4.32866 -0.00621539 5.04695 0.000528838H10.0469C11.2381 -0.0167897 12.3963 0.391757 13.313 1.15259C14.2297 1.91343 14.8446 2.97656 15.0469 4.15053M14.2303 11.6005L13.5303 12.0672C14.4333 13.6905 15.5549 15.1822 16.8636 16.5005L14.2303 11.6005ZM15.8969 7.4672C15.6323 6.75457 15.4152 6.02519 15.2469 5.28386C15.1636 4.9172 15.0969 4.53386 15.0469 4.15053M15.8969 7.4672L14.7015 7.91112L27.5803 31.8964C20.9597 31.0112 14.8146 27.965 10.1006 23.2285C10.0837 23.2116 10.0669 23.1947 10.0501 23.1777C5.32659 18.4093 2.3175 12.2082 1.49533 5.54546L1.49355 5.53102L1.49198 5.51656C1.49139 5.51115 1.49082 5.50574 1.49025 5.50033C1.48972 5.49518 1.48919 5.49004 1.48867 5.48489C1.43831 4.98231 1.48819 4.47462 1.63555 3.99126C1.63583 3.99035 1.63611 3.98944 1.63638 3.98853C1.78408 3.50538 2.02621 3.05645 2.34863 2.66772C2.35484 2.66023 2.36109 2.65276 2.36736 2.64531L2.38072 2.62945L2.39441 2.61386C2.71564 2.24821 3.10623 1.95043 3.54317 1.73756C3.5736 1.72274 3.60426 1.70832 3.63513 1.69433C4.07578 1.49457 4.55125 1.38414 5.0341 1.369C5.03838 1.36886 5.04266 1.36874 5.04695 1.36862C5.07941 1.36771 5.1119 1.36724 5.14441 1.3672L5.14695 1.36719L10.0469 1.3672H10.0668H10.129C10.9724 1.35454 11.7947 1.63307 12.457 2.15628C12.4616 2.15993 12.4662 2.16359 12.4708 2.16726C13.1326 2.69528 13.5915 3.4362 13.7691 4.26436L13.7801 4.31576L15.0469 4.15053M15.8969 7.4672L14.6985 7.90319C14.4161 7.15486 14.1885 6.38703 14.0173 5.60574L14.0173 5.60573L14.0148 5.59484C14.0126 5.58502 14.0104 5.57521 14.0082 5.56539L15.2463 5.28401L14.0081 5.56498C13.9223 5.18017 13.8504 4.78997 13.7925 4.39426L13.7886 4.36747L15.0469 4.15053M13.07 4.45643C13.0719 4.47067 13.0738 4.48491 13.0757 4.49916C13.1316 4.90843 13.2048 5.32268 13.2967 5.7271L13.07 4.45643Z" fill="#367CFF" stroke="#367CFF" stroke-width="4"/>
</svg>
