<svg width="40" height="40" viewBox="0 0 40 40" fill="none" xmlns="http://www.w3.org/2000/svg">
<path d="M17.1379 14.0115C18.0278 13.5745 18.7251 12.8228 19.0957 11.9012C19.4662 10.9795 19.4838 9.95299 19.1451 9.01911C18.8264 8.15838 18.5649 7.27742 18.3623 6.38202C18.2619 5.93914 18.1816 5.47614 18.1214 5.01314M17.1379 14.0115L39.9999 33.9407C40.0039 34.7951 39.827 35.6406 39.481 36.4214C39.135 37.2022 38.6277 37.9005 37.9927 38.4701M17.1379 14.0115L16.2948 14.5751C17.3824 16.5358 18.7331 18.3376 20.3092 19.9299C21.4213 21.037 22.6358 22.0333 23.9354 22.9057L23.8506 23.0796L25.6484 23.956L26.1401 23.0746L27.768 23.8693L27.3611 24.7908L26.5622 26.5999C26.5618 26.6005 26.5613 26.6011 26.5608 26.6015C26.5605 26.6018 26.5602 26.602 26.56 26.6021C26.5595 26.6025 26.559 26.6027 26.5588 26.6028L26.5151 26.6185L26.4743 26.6353C25.8612 26.3457 25.261 26.0341 24.6747 25.7013C22.5609 24.5016 20.6272 23.0276 18.9198 21.3254C18.9164 21.322 18.913 21.3187 18.9096 21.3153C17.9959 20.4034 17.1471 19.4262 16.3703 18.3906M17.1379 14.0115L38.0445 33.9407L38.0446 33.9497L38.0457 34.1292L38.0457 34.1369L38.0457 34.1445C38.0451 34.6625 37.9443 35.1751 37.7494 35.6541C37.7302 35.7012 37.7101 35.748 37.6891 35.7944C37.468 36.2835 37.1512 36.7232 36.7574 37.0875L37.9927 38.4701M18.1214 5.01314C17.8776 3.59519 17.1371 2.3111 16.0331 1.39214C14.9292 0.473176 13.5343 -0.0202792 12.0998 0.000638748H6.07816C5.21311 -0.00750715 4.35647 0.171373 3.56656 0.5251C2.77664 0.878828 2.07199 1.3991 1.50058 2.05049C0.929172 2.70189 0.504414 3.46912 0.255227 4.29994C0.00603907 5.13077 -0.0617285 6.00569 0.0565374 6.86515C1.12585 15.2986 4.96622 23.1344 10.971 29.1348C16.9758 35.1352 24.8028 38.9583 33.2156 40M18.1214 5.01314L16.2027 5.34296L16.2065 5.36854C16.2775 5.85555 16.3657 6.33597 16.471 6.80994L18.3616 6.38217L16.4712 6.81056C16.4741 6.82374 16.477 6.83691 16.48 6.85008L16.4824 6.86094L16.4824 6.86095C16.6921 7.82047 16.9706 8.76351 17.3157 9.68269L19.145 9.01914L17.3203 9.69477C17.3213 9.69752 17.3224 9.70027 17.3234 9.70302L17.9772 11.4384L17.9621 11.4454L16.296 12.2212L16.2657 12.2353L16.0363 12.3422M18.1214 5.01314L16.1886 5.26451L16.1832 5.23898C15.9996 4.38087 15.5404 3.60738 14.877 3.03631M33.2156 40H33.9783C35.4585 40.0022 36.8876 39.4575 37.9927 38.4701M33.2156 40V38.1061C26.327 37.1719 19.8737 34.2677 14.6146 29.7692M33.2156 40L33.4463 38.1367C33.4516 38.1374 33.457 38.138 33.4623 38.1387L33.4694 38.1396L33.4766 38.1405C33.6434 38.1608 33.811 38.1707 33.9783 38.1705C33.9792 38.1705 33.9801 38.1705 33.981 38.1705C34.3858 38.1697 34.7892 38.1092 35.1781 37.9903C35.7286 37.822 36.2375 37.5404 36.6725 37.1638L36.679 37.1581L36.6855 37.1524C36.7088 37.1319 36.7319 37.111 36.7547 37.0899L37.9927 38.4701M16.3703 18.3906C15.7031 17.4831 15.0936 16.5328 14.5459 15.5452L13.6654 13.9579M16.3703 18.3906C15.3353 17.0109 14.4281 15.5278 13.6654 13.9579M16.3703 18.3906C17.1357 19.4317 17.9769 20.4166 18.8878 21.3368L18.893 21.342L18.8981 21.3472C20.6155 23.057 22.5589 24.5225 24.674 25.7025L26.4475 26.692L17.2668 9.70617C17.2687 9.71151 17.2706 9.71685 17.2725 9.72221C17.4355 10.1876 17.4241 10.6972 17.24 11.1551C17.0575 11.6092 16.7182 11.98 16.2867 12.201C16.2766 12.2062 16.2665 12.2113 16.2563 12.2163L16.1369 12.2749L16.0363 12.3422M13.6654 13.9579C13.6617 13.9502 13.6579 13.9425 13.6542 13.9348M13.6654 13.9579L13.653 13.9356L13.6542 13.9348M13.6542 13.9348L15.1832 12.9125L16.0262 12.3489L16.0363 12.3422M13.6542 13.9348C13.5929 13.8083 13.5325 13.6812 13.473 13.5535M16.0363 12.3422L13.486 13.5297L13.4778 13.5335L13.4778 13.5335C13.4772 13.5337 13.4764 13.5342 13.4754 13.5353C13.4745 13.5363 13.4734 13.5379 13.4726 13.54C13.4719 13.5421 13.4715 13.5445 13.4716 13.547C13.4717 13.5494 13.4722 13.5516 13.473 13.5535M14.877 3.03631C14.8367 2.99986 14.7955 2.96417 14.7536 2.92927C14.0162 2.31542 13.0854 1.98648 12.1289 2.00043L12.1144 2.00064H12.0998H6.07816H6.06874L6.05932 2.00055C5.48249 1.99512 4.91108 2.11439 4.38395 2.35044C3.8568 2.5865 3.38609 2.93391 3.00409 3.36938C2.62207 3.80488 2.33777 4.31819 2.17092 4.87451C2.00406 5.43084 1.95865 6.01684 2.03787 6.59251L2.03932 6.60303L2.04065 6.61357C3.05423 14.6074 6.69432 22.0338 12.3847 27.7201C13.1014 28.4363 13.8455 29.1197 14.6146 29.7692M14.877 3.03631C14.8358 3.00087 14.7939 2.9662 14.7511 2.93235C14.0266 2.35831 13.126 2.05241 12.2017 2.06701M14.877 3.03631C15.521 3.61816 15.9618 4.39441 16.1314 5.25004C16.1358 5.27226 16.1401 5.29453 16.1441 5.31685C16.1467 5.33672 16.1494 5.35659 16.1521 5.37647C16.2179 5.86009 16.3039 6.34849 16.4117 6.82403L14.2274 5.65732M14.6146 29.7692C19.9211 34.2508 26.4194 37.1192 33.3406 38L34.4199 25.8482C34.8764 25.9465 35.2845 26.2012 35.5739 26.5686C35.8633 26.936 36.016 27.3932 36.0056 27.8613L36.0457 34.142C36.0454 34.4278 35.9843 34.7103 35.8667 34.9706C35.749 35.2309 35.5774 35.4632 35.3633 35.6518C35.139 35.846 34.8768 35.9911 34.5933 36.0778C34.3099 36.1644 34.0115 36.1907 33.7174 36.1551C26.2002 35.1884 19.2178 31.7394 13.8716 26.3521C8.52533 20.9648 5.11953 13.9457 4.19138 6.40215C4.15944 6.10727 4.18743 5.80896 4.27368 5.52524C4.35993 5.24152 4.50264 4.97829 4.69318 4.75144C4.88128 4.53671 5.11281 4.36462 5.37238 4.2466C5.63195 4.12859 5.91359 4.06737 6.19859 4.06701H12.2202M14.6146 29.7692C13.869 29.1315 13.1474 28.4617 12.452 27.7609C6.79288 22.0583 3.18857 14.6294 2.20635 6.64638L2.20458 6.63198L2.20302 6.61756C2.14204 6.05471 2.19546 5.48526 2.36014 4.94354C2.52483 4.40181 2.79742 3.89882 3.16176 3.46508L3.17509 3.44921L3.18875 3.43361C3.56389 3.00536 4.02601 2.66173 4.54461 2.42595C5.06322 2.19016 5.6262 2.06773 6.19605 2.06701L6.19859 2.067L12.2017 2.06701M12.2017 2.06701C12.193 2.06714 12.1843 2.06731 12.1756 2.0675L12.2202 4.06701M12.2017 2.06701H12.2202V4.06701M12.2202 4.06701C12.687 4.05659 13.1428 4.20969 13.5091 4.49995C13.8755 4.79022 14.1295 5.19949 14.2274 5.65732M14.2274 5.65732C14.3077 6.20755 14.4081 6.75108 14.5285 7.28789C14.7604 8.34906 15.069 9.39189 15.4518 10.4081L14.2274 5.65732ZM13.473 13.5535C13.4725 13.5523 13.4719 13.5511 13.4714 13.5499L11.6582 14.394L13.4732 13.5538C13.4731 13.5537 13.4731 13.5536 13.473 13.5535Z" fill="black" stroke="white" stroke-width="4"/>
</svg>
