<svg width="54" height="47" viewBox="0 0 54 47" fill="none" xmlns="http://www.w3.org/2000/svg">
<path d="M2 17.4024C2 14.0705 4.48731 11.3695 7.55556 11.3695H10.7963C13.0391 11.3695 15.0619 9.90503 15.9245 7.65689L16.5477 6.03264C17.4103 3.7845 19.4331 2.32007 21.6758 2.32007H32.3242C34.5669 2.32007 36.5897 3.7845 37.4522 6.03264L38.0756 7.65689C38.9381 9.90503 40.9608 11.3695 43.2036 11.3695H46.4444C49.5128 11.3695 52 14.0705 52 17.4024V38.5176C52 41.8496 49.5128 44.5506 46.4444 44.5506H7.55556C4.48731 44.5506 2 41.8496 2 38.5176V17.4024Z" stroke="#5669FF" stroke-width="3" stroke-linecap="round"/>
<path d="M35.5929 25.7896C35.5929 30.7876 31.862 34.839 27.2595 34.839C22.657 34.839 18.9262 30.7876 18.9262 25.7896C18.9262 20.7916 22.657 16.7402 27.2595 16.7402C31.862 16.7402 35.5929 20.7916 35.5929 25.7896Z" stroke="#5669FF" stroke-width="3" stroke-linecap="round"/>
</svg>
