<svg width="38" height="36" viewBox="0 0 38 36" fill="none" xmlns="http://www.w3.org/2000/svg">
<path d="M28.5134 12.5994H9.54011C9.03691 12.5994 8.55431 12.7891 8.1985 13.1266C7.84268 13.4642 7.64278 13.922 7.64278 14.3994C7.64278 14.8767 7.84268 15.3345 8.1985 15.6721C8.55431 16.0096 9.03691 16.1993 9.54011 16.1993H28.5134C29.0166 16.1993 29.4992 16.0096 29.855 15.6721C30.2108 15.3345 30.4107 14.8767 30.4107 14.3994C30.4107 13.922 30.2108 13.4642 29.855 13.1266C29.4992 12.7891 29.0166 12.5994 28.5134 12.5994ZM20.9241 19.7991H9.54011C9.03691 19.7991 8.55431 19.9888 8.1985 20.3263C7.84268 20.6639 7.64278 21.1217 7.64278 21.599C7.64278 22.0764 7.84268 22.5342 8.1985 22.8718C8.55431 23.2093 9.03691 23.399 9.54011 23.399H20.9241C21.4273 23.399 21.9099 23.2093 22.2657 22.8718C22.6215 22.5342 22.8214 22.0764 22.8214 21.599C22.8214 21.1217 22.6215 20.6639 22.2657 20.3263C21.9099 19.9888 21.4273 19.7991 20.9241 19.7991ZM19.0267 0C16.5351 0 14.0679 0.465563 11.766 1.37011C9.46404 2.27465 7.37245 3.60046 5.61062 5.27184C2.05244 8.64735 0.0534787 13.2255 0.0534787 17.9992C0.036892 22.1555 1.55387 26.1862 4.34144 29.3927L0.546784 32.9925C0.283515 33.2457 0.105173 33.5671 0.0342626 33.9162C-0.0366483 34.2654 0.00304881 34.6267 0.148345 34.9545C0.305933 35.2783 0.561401 35.5504 0.882319 35.7363C1.20324 35.9222 1.57514 36.0134 1.9508 35.9984H19.0267C24.0588 35.9984 28.8847 34.1021 32.4429 30.7266C36.001 27.3511 38 22.7729 38 17.9992C38 13.2255 36.001 8.64735 32.4429 5.27184C28.8847 1.89634 24.0588 0 19.0267 0ZM19.0267 32.3986H6.52336L8.28787 30.7246C8.64125 30.3874 8.8396 29.9312 8.8396 29.4557C8.8396 28.9802 8.64125 28.524 8.28787 28.1868C5.80349 25.8325 4.25639 22.734 3.91016 19.419C3.56393 16.104 4.43999 12.7776 6.38908 10.0067C8.33817 7.23575 11.2397 5.19162 14.5994 4.22256C17.959 3.25351 21.5689 3.4195 24.814 4.69224C28.0591 5.96498 30.7387 8.26573 32.3961 11.2025C34.0536 14.1393 34.5865 17.5304 33.9039 20.7981C33.2214 24.0658 31.3656 27.0079 28.6529 29.1231C25.9402 31.2384 22.5382 32.3959 19.0267 32.3986Z" fill="#367CFF"/>
</svg>
