<svg width="32" height="32" viewBox="0 0 32 32" fill="none" xmlns="http://www.w3.org/2000/svg">
<path d="M17.6 14.3998H8C7.57565 14.3998 7.16869 14.5684 6.86863 14.8684C6.56857 15.1685 6.4 15.5754 6.4 15.9998C6.4 16.4241 6.56857 16.8311 6.86863 17.1311C7.16869 17.4312 7.57565 17.5998 8 17.5998H17.6C18.0243 17.5998 18.4313 17.4312 18.7314 17.1311C19.0314 16.8311 19.2 16.4241 19.2 15.9998C19.2 15.5754 19.0314 15.1685 18.7314 14.8684C18.4313 14.5684 18.0243 14.3998 17.6 14.3998ZM24 7.99989H8C7.57565 7.99989 7.16869 8.16846 6.86863 8.46851C6.56857 8.76857 6.4 9.17553 6.4 9.59987C6.4 10.0242 6.56857 10.4312 6.86863 10.7312C7.16869 11.0313 7.57565 11.1998 8 11.1998H24C24.4243 11.1998 24.8313 11.0313 25.1314 10.7312C25.4314 10.4312 25.6 10.0242 25.6 9.59987C25.6 9.17553 25.4314 8.76857 25.1314 8.46851C24.8313 8.16846 24.4243 7.99989 24 7.99989ZM27.2 0H4.8C3.52696 0 2.30606 0.505706 1.40589 1.40587C0.505713 2.30603 0 3.52691 0 4.79993V20.7997C0 22.0727 0.505713 23.2936 1.40589 24.1938C2.30606 25.0939 3.52696 25.5996 4.8 25.5996H23.344L29.264 31.5356C29.4135 31.6838 29.5908 31.8012 29.7857 31.8808C29.9807 31.9604 30.1894 32.0008 30.4 31.9996C30.6099 32.005 30.8181 31.9611 31.008 31.8716C31.3002 31.7515 31.5503 31.5477 31.7268 31.2857C31.9034 31.0238 31.9984 30.7155 32 30.3996V4.79993C32 3.52691 31.4943 2.30603 30.5941 1.40587C29.6939 0.505706 28.473 0 27.2 0ZM28.8 26.5436L25.136 22.8637C24.9865 22.7154 24.8092 22.5981 24.6143 22.5185C24.4193 22.4388 24.2106 22.3985 24 22.3997H4.8C4.37565 22.3997 3.96869 22.2311 3.66863 21.9311C3.36857 21.631 3.2 21.2241 3.2 20.7997V4.79993C3.2 4.37559 3.36857 3.96863 3.66863 3.66858C3.96869 3.36852 4.37565 3.19996 4.8 3.19996H27.2C27.6243 3.19996 28.0313 3.36852 28.3314 3.66858C28.6314 3.96863 28.8 4.37559 28.8 4.79993V26.5436Z" fill="#1A2FD6"/>
<path d="M17.6 14.3998H8C7.57565 14.3998 7.16869 14.5684 6.86863 14.8684C6.56857 15.1685 6.4 15.5754 6.4 15.9998C6.4 16.4241 6.56857 16.8311 6.86863 17.1311C7.16869 17.4312 7.57565 17.5998 8 17.5998H17.6C18.0243 17.5998 18.4313 17.4312 18.7314 17.1311C19.0314 16.8311 19.2 16.4241 19.2 15.9998C19.2 15.5754 19.0314 15.1685 18.7314 14.8684C18.4313 14.5684 18.0243 14.3998 17.6 14.3998ZM24 7.99989H8C7.57565 7.99989 7.16869 8.16846 6.86863 8.46851C6.56857 8.76857 6.4 9.17553 6.4 9.59987C6.4 10.0242 6.56857 10.4312 6.86863 10.7312C7.16869 11.0313 7.57565 11.1998 8 11.1998H24C24.4243 11.1998 24.8313 11.0313 25.1314 10.7312C25.4314 10.4312 25.6 10.0242 25.6 9.59987C25.6 9.17553 25.4314 8.76857 25.1314 8.46851C24.8313 8.16846 24.4243 7.99989 24 7.99989ZM27.2 0H4.8C3.52696 0 2.30606 0.505706 1.40589 1.40587C0.505713 2.30603 0 3.52691 0 4.79993V20.7997C0 22.0727 0.505713 23.2936 1.40589 24.1938C2.30606 25.0939 3.52696 25.5996 4.8 25.5996H23.344L29.264 31.5356C29.4135 31.6838 29.5908 31.8012 29.7857 31.8808C29.9807 31.9604 30.1894 32.0008 30.4 31.9996C30.6099 32.005 30.8181 31.9611 31.008 31.8716C31.3002 31.7515 31.5503 31.5477 31.7268 31.2857C31.9034 31.0238 31.9984 30.7155 32 30.3996V4.79993C32 3.52691 31.4943 2.30603 30.5941 1.40587C29.6939 0.505706 28.473 0 27.2 0ZM28.8 26.5436L25.136 22.8637C24.9865 22.7154 24.8092 22.5981 24.6143 22.5185C24.4193 22.4388 24.2106 22.3985 24 22.3997H4.8C4.37565 22.3997 3.96869 22.2311 3.66863 21.9311C3.36857 21.631 3.2 21.2241 3.2 20.7997V4.79993C3.2 4.37559 3.36857 3.96863 3.66863 3.66858C3.96869 3.36852 4.37565 3.19996 4.8 3.19996H27.2C27.6243 3.19996 28.0313 3.36852 28.3314 3.66858C28.6314 3.96863 28.8 4.37559 28.8 4.79993V26.5436Z" stroke="black"/>
</svg>
