<svg width="36" height="37" viewBox="0 0 36 37" fill="none" xmlns="http://www.w3.org/2000/svg">
<path d="M23.5767 19.4814L19.8 17.3017V9.34057C19.8 8.86318 19.6104 8.40535 19.2728 8.06778C18.9352 7.73022 18.4774 7.54057 18 7.54057C17.5226 7.54057 17.0648 7.73022 16.7272 8.06778C16.3896 8.40535 16.2 8.86318 16.2 9.34057V18.3406C16.1999 18.6566 16.2831 18.9671 16.441 19.2408C16.599 19.5145 16.8263 19.7418 17.1 19.8997L21.7767 22.5997C21.9814 22.7181 22.2075 22.7949 22.4419 22.8258C22.6764 22.8568 22.9147 22.8412 23.1431 22.7801C23.3716 22.7189 23.5857 22.6133 23.7733 22.4693C23.961 22.3254 24.1184 22.1459 24.2366 21.941C24.3549 21.7362 24.4316 21.5101 24.4624 21.2756C24.4932 21.0411 24.4775 20.8029 24.4162 20.5745C24.3549 20.3461 24.2493 20.132 24.1052 19.9444C23.9611 19.7569 23.7815 19.5995 23.5767 19.4814ZM18 0.340576C14.4399 0.340576 10.9598 1.39626 7.99974 3.37412C5.03966 5.35199 2.73255 8.1632 1.37018 11.4523C0.00779915 14.7413 -0.348661 18.3605 0.345873 21.8522C1.04041 25.3439 2.75474 28.5511 5.27209 31.0685C7.78943 33.5858 10.9967 35.3002 14.4884 35.9947C17.98 36.6892 21.5992 36.3328 24.8883 34.9704C28.1774 33.608 30.9886 31.3009 32.9665 28.3408C34.9443 25.3807 36 21.9006 36 18.3406C35.9947 13.5683 34.0966 8.99302 30.7221 5.61852C27.3476 2.24401 22.7723 0.345884 18 0.340576ZM18 32.7406C15.152 32.7406 12.3679 31.896 9.99979 30.3137C7.63173 28.7314 5.78604 26.4825 4.69614 23.8512C3.60624 21.22 3.32107 18.3246 3.8767 15.5313C4.43233 12.7379 5.80379 10.1721 7.81767 8.15824C9.83154 6.14436 12.3974 4.77289 15.1907 4.21727C17.984 3.66164 20.8794 3.94681 23.5106 5.03671C26.1419 6.12661 28.3909 7.9723 29.9732 10.3404C31.5555 12.7084 32.4 15.4925 32.4 18.3406C32.3956 22.1583 30.8771 25.8185 28.1775 28.5181C25.4779 31.2177 21.8178 32.7362 18 32.7406Z" fill="#0C0C0C"/>
</svg>
