<svg width="40" height="40" viewBox="0 0 40 40" fill="none" xmlns="http://www.w3.org/2000/svg">
<path d="M28.8889 22H22.2222C21 22 20 22.9 20 24V30C20 31.1 21 32 22.2222 32H28.8889C30.1111 32 31.1111 31.1 31.1111 30V24C31.1111 22.9 30.1111 22 28.8889 22ZM28.8889 2V4H11.1111V2C11.1111 0.9 10.1111 0 8.88889 0C7.66667 0 6.66667 0.9 6.66667 2V4H4.44444C1.97778 4 0.0222222 5.8 0.0222222 8L0 36C0 38.2 1.97778 40 4.44444 40H35.5556C38 40 40 38.2 40 36V8C40 5.8 38 4 35.5556 4H33.3333V2C33.3333 0.9 32.3333 0 31.1111 0C29.8889 0 28.8889 0.9 28.8889 2ZM33.3333 36H6.66667C5.44444 36 4.44444 35.1 4.44444 34V14H35.5556V34C35.5556 35.1 34.5556 36 33.3333 36Z" fill="#367CFF"/>
</svg>
