<svg width="69" height="66" viewBox="0 0 69 66" fill="none" xmlns="http://www.w3.org/2000/svg">
<path d="M10.35 6.50322H17.25V3.25161C17.25 2.38923 17.6135 1.56217 18.2605 0.952374C18.9075 0.342579 19.785 0 20.7 0C21.615 0 22.4925 0.342579 23.1395 0.952374C23.7865 1.56217 24.15 2.38923 24.15 3.25161V6.50322H44.85V3.25161C44.85 2.38923 45.2135 1.56217 45.8605 0.952374C46.5075 0.342579 47.385 0 48.3 0C49.215 0 50.0925 0.342579 50.7395 0.952374C51.3865 1.56217 51.75 2.38923 51.75 3.25161V6.50322H58.65C61.395 6.50322 64.0276 7.53096 65.9686 9.36034C67.9096 11.1897 69 13.6709 69 16.258V55.2774C69 57.8645 67.9096 60.3457 65.9686 62.1751C64.0276 64.0044 61.395 65.0322 58.65 65.0322H10.35C7.60501 65.0322 4.97244 64.0044 3.03144 62.1751C1.09044 60.3457 0 57.8645 0 55.2774V16.258C0 13.6709 1.09044 11.1897 3.03144 9.36034C4.97244 7.53096 7.60501 6.50322 10.35 6.50322ZM6.9 55.2774C6.9 56.1397 7.26348 56.9668 7.91048 57.5766C8.55748 58.1864 9.435 58.529 10.35 58.529H58.65C59.565 58.529 60.4425 58.1864 61.0895 57.5766C61.7365 56.9668 62.1 56.1397 62.1 55.2774V32.5161H6.9V55.2774ZM6.9 26.0129H62.1V16.258C62.1 15.3957 61.7365 14.5686 61.0895 13.9588C60.4425 13.349 59.565 13.0064 58.65 13.0064H51.75V16.258C51.75 17.1204 51.3865 17.9475 50.7395 18.5573C50.0925 19.1671 49.215 19.5097 48.3 19.5097C47.385 19.5097 46.5075 19.1671 45.8605 18.5573C45.2135 17.9475 44.85 17.1204 44.85 16.258V13.0064H24.15V16.258C24.15 17.1204 23.7865 17.9475 23.1395 18.5573C22.4925 19.1671 21.615 19.5097 20.7 19.5097C19.785 19.5097 18.9075 19.1671 18.2605 18.5573C17.6135 17.9475 17.25 17.1204 17.25 16.258V13.0064H10.35C9.435 13.0064 8.55748 13.349 7.91048 13.9588C7.26348 14.5686 6.9 15.3957 6.9 16.258V26.0129Z" fill="#5669FF"/>
</svg>
