<svg width="68" height="63" viewBox="0 0 68 63" fill="none" xmlns="http://www.w3.org/2000/svg">
<path d="M65.5714 4.43197H55.8571V2.21598C55.8571 1.62827 55.6013 1.06462 55.1458 0.649046C54.6904 0.233469 54.0727 0 53.4286 0C52.7845 0 52.1668 0.233469 51.7113 0.649046C51.2559 1.06462 51 1.62827 51 2.21598V4.43197H17V2.21598C17 1.62827 16.7441 1.06462 16.2887 0.649046C15.8332 0.233469 15.2155 0 14.5714 0C13.9273 0 13.3096 0.233469 12.8542 0.649046C12.3987 1.06462 12.1429 1.62827 12.1429 2.21598V4.43197H2.42857C1.78447 4.43197 1.16676 4.66544 0.711312 5.08101C0.255866 5.49659 0 6.06023 0 6.64795V19.9438C0 20.5316 0.255866 21.0952 0.711312 21.5108C1.16676 21.9264 1.78447 22.1598 2.42857 22.1598H4.85714V59.8315C4.85714 60.4193 5.11301 60.9829 5.56846 61.3985C6.0239 61.8141 6.64162 62.0475 7.28571 62.0475H60.7143C61.3584 62.0475 61.9761 61.8141 62.4315 61.3985C62.887 60.9829 63.1429 60.4193 63.1429 59.8315V22.1598H65.5714C66.2155 22.1598 66.8332 21.9264 67.2887 21.5108C67.7441 21.0952 68 20.5316 68 19.9438V6.64795C68 6.06023 67.7441 5.49659 67.2887 5.08101C66.8332 4.66544 66.2155 4.43197 65.5714 4.43197ZM58.2857 57.6156H9.71429V22.1598H58.2857V57.6156Z" fill="#5669FF"/>
<path d="M65.5714 4.43197H55.8571V2.21598C55.8571 1.62827 55.6013 1.06462 55.1458 0.649046C54.6904 0.233469 54.0727 0 53.4286 0C52.7845 0 52.1668 0.233469 51.7113 0.649046C51.2559 1.06462 51 1.62827 51 2.21598V4.43197H17V2.21598C17 1.62827 16.7441 1.06462 16.2887 0.649046C15.8332 0.233469 15.2155 0 14.5714 0C13.9273 0 13.3096 0.233469 12.8542 0.649046C12.3987 1.06462 12.1429 1.62827 12.1429 2.21598V4.43197H2.42857C1.78447 4.43197 1.16676 4.66544 0.711312 5.08101C0.255866 5.49659 0 6.06023 0 6.64795V19.9438C0 20.5316 0.255866 21.0952 0.711312 21.5108C1.16676 21.9264 1.78447 22.1598 2.42857 22.1598H4.85714V59.8315C4.85714 60.4193 5.11301 60.9829 5.56846 61.3985C6.0239 61.8141 6.64162 62.0475 7.28571 62.0475H60.7143C61.3584 62.0475 61.9761 61.8141 62.4315 61.3985C62.887 60.9829 63.1429 60.4193 63.1429 59.8315V22.1598H65.5714C66.2155 22.1598 66.8332 21.9264 67.2887 21.5108C67.7441 21.0952 68 20.5316 68 19.9438V6.64795C68 6.06023 67.7441 5.49659 67.2887 5.08101C66.8332 4.66544 66.2155 4.43197 65.5714 4.43197ZM58.2857 57.6156H9.71429V22.1598H58.2857V57.6156Z" stroke="black"/>
<path d="M44.0057 31.1566C42.7886 29.8578 41.0702 29.0365 39.2071 28.8632C37.3439 28.6898 35.4792 29.1778 34 30.2259C32.5207 29.1778 30.656 28.6898 28.7929 28.8632C26.9298 29.0365 25.2113 29.8578 23.9943 31.1566C22.6058 32.6346 21.8425 34.5171 21.8425 36.4638C21.8425 38.4106 22.6058 40.2931 23.9943 41.7711L32.1786 50.214C32.4065 50.4498 32.6867 50.6387 33.0008 50.768C33.3148 50.8974 33.6554 50.9643 34 50.9643C34.3445 50.9643 34.6852 50.8974 34.9992 50.768C35.3132 50.6387 35.5935 50.4498 35.8214 50.214L44.0057 41.7711C45.3942 40.2931 46.1574 38.4106 46.1574 36.4638C46.1574 34.5171 45.3942 32.6346 44.0057 31.1566Z" fill="#5669FF"/>
<path d="M44.0057 31.1566C42.7886 29.8578 41.0702 29.0365 39.2071 28.8632C37.3439 28.6898 35.4792 29.1778 34 30.2259C32.5207 29.1778 30.656 28.6898 28.7929 28.8632C26.9298 29.0365 25.2113 29.8578 23.9943 31.1566C22.6058 32.6346 21.8425 34.5171 21.8425 36.4638C21.8425 38.4106 22.6058 40.2931 23.9943 41.7711L32.1786 50.214C32.4065 50.4498 32.6867 50.6387 33.0008 50.768C33.3148 50.8974 33.6554 50.9643 34 50.9643C34.3445 50.9643 34.6852 50.8974 34.9992 50.768C35.3132 50.6387 35.5935 50.4498 35.8214 50.214L44.0057 41.7711C45.3942 40.2931 46.1574 38.4106 46.1574 36.4638C46.1574 34.5171 45.3942 32.6346 44.0057 31.1566Z" stroke="black"/>
</svg>
