<svg width="63" height="71" viewBox="0 0 63 71" fill="none" xmlns="http://www.w3.org/2000/svg">
<path d="M34.65 31.9496H15.75C14.9146 31.9496 14.1134 32.3236 13.5226 32.9893C12.9319 33.6551 12.6 34.558 12.6 35.4995C12.6 36.441 12.9319 37.344 13.5226 38.0097C14.1134 38.6754 14.9146 39.0495 15.75 39.0495H34.65C35.4854 39.0495 36.2866 38.6754 36.8774 38.0097C37.4681 37.344 37.8 36.441 37.8 35.4995C37.8 34.558 37.4681 33.6551 36.8774 32.9893C36.2866 32.3236 35.4854 31.9496 34.65 31.9496ZM47.25 17.7498H15.75C14.9146 17.7498 14.1134 18.1238 13.5226 18.7895C12.9319 19.4553 12.6 20.3582 12.6 21.2997C12.6 22.2412 12.9319 23.1442 13.5226 23.8099C14.1134 24.4756 14.9146 24.8497 15.75 24.8497H47.25C48.0854 24.8497 48.8867 24.4756 49.4774 23.8099C50.0681 23.1442 50.4 22.2412 50.4 21.2997C50.4 20.3582 50.0681 19.4553 49.4774 18.7895C48.8867 18.1238 48.0854 17.7498 47.25 17.7498ZM53.55 0H9.45C6.9437 0 4.54006 1.12204 2.76784 3.11927C0.995623 5.1165 0 7.82534 0 10.6499V46.1494C0 48.9739 0.995623 51.6827 2.76784 53.6799C4.54006 55.6772 6.9437 56.7992 9.45 56.7992H45.9585L57.6135 69.9695C57.9078 70.2985 58.2569 70.5588 58.6407 70.7355C59.0245 70.9122 59.4354 71.0017 59.85 70.999C60.2632 71.011 60.6732 70.9137 61.047 70.715C61.6222 70.4487 62.1147 69.9964 62.4622 69.4152C62.8098 68.834 62.9969 68.1499 63 67.4491V10.6499C63 7.82534 62.0044 5.1165 60.2322 3.11927C58.4599 1.12204 56.0563 0 53.55 0ZM56.7 58.8937L49.4865 50.7288C49.1922 50.3998 48.8431 50.1395 48.4593 49.9628C48.0755 49.7862 47.6646 49.6966 47.25 49.6993H9.45C8.61457 49.6993 7.81335 49.3253 7.22261 48.6595C6.63187 47.9938 6.3 47.0909 6.3 46.1494V10.6499C6.3 9.70835 6.63187 8.8054 7.22261 8.13966C7.81335 7.47391 8.61457 7.0999 9.45 7.0999H53.55C54.3854 7.0999 55.1866 7.47391 55.7774 8.13966C56.3681 8.8054 56.7 9.70835 56.7 10.6499V58.8937Z" fill="#5669FF"/>
<path d="M34.65 31.9496H15.75C14.9146 31.9496 14.1134 32.3236 13.5226 32.9893C12.9319 33.6551 12.6 34.558 12.6 35.4995C12.6 36.441 12.9319 37.344 13.5226 38.0097C14.1134 38.6754 14.9146 39.0495 15.75 39.0495H34.65C35.4854 39.0495 36.2866 38.6754 36.8774 38.0097C37.4681 37.344 37.8 36.441 37.8 35.4995C37.8 34.558 37.4681 33.6551 36.8774 32.9893C36.2866 32.3236 35.4854 31.9496 34.65 31.9496ZM47.25 17.7498H15.75C14.9146 17.7498 14.1134 18.1238 13.5226 18.7895C12.9319 19.4553 12.6 20.3582 12.6 21.2997C12.6 22.2412 12.9319 23.1442 13.5226 23.8099C14.1134 24.4756 14.9146 24.8497 15.75 24.8497H47.25C48.0854 24.8497 48.8867 24.4756 49.4774 23.8099C50.0681 23.1442 50.4 22.2412 50.4 21.2997C50.4 20.3582 50.0681 19.4553 49.4774 18.7895C48.8867 18.1238 48.0854 17.7498 47.25 17.7498ZM53.55 0H9.45C6.9437 0 4.54006 1.12204 2.76784 3.11927C0.995623 5.1165 0 7.82534 0 10.6499V46.1494C0 48.9739 0.995623 51.6827 2.76784 53.6799C4.54006 55.6772 6.9437 56.7992 9.45 56.7992H45.9585L57.6135 69.9695C57.9078 70.2985 58.2569 70.5588 58.6407 70.7355C59.0245 70.9122 59.4354 71.0017 59.85 70.999C60.2632 71.011 60.6732 70.9137 61.047 70.715C61.6222 70.4487 62.1147 69.9964 62.4622 69.4152C62.8098 68.834 62.9969 68.1499 63 67.4491V10.6499C63 7.82534 62.0044 5.1165 60.2322 3.11927C58.4599 1.12204 56.0563 0 53.55 0ZM56.7 58.8937L49.4865 50.7288C49.1922 50.3998 48.8431 50.1395 48.4593 49.9628C48.0755 49.7862 47.6646 49.6966 47.25 49.6993H9.45C8.61457 49.6993 7.81335 49.3253 7.22261 48.6595C6.63187 47.9938 6.3 47.0909 6.3 46.1494V10.6499C6.3 9.70835 6.63187 8.8054 7.22261 8.13966C7.81335 7.47391 8.61457 7.0999 9.45 7.0999H53.55C54.3854 7.0999 55.1866 7.47391 55.7774 8.13966C56.3681 8.8054 56.7 9.70835 56.7 10.6499V58.8937Z" stroke="black"/>
</svg>
