<svg width="24" height="34" viewBox="0 0 24 34" fill="none" xmlns="http://www.w3.org/2000/svg">
<path d="M12 0C8.8174 0 5.76516 1.40476 3.51472 3.90524C1.26428 6.40573 0 9.79711 0 13.3333C0 22.3173 10.5374 32.4639 11.0225 32.9309L11.025 32.9333C11.2967 33.1916 11.6425 33.3334 12 33.3334C12.3575 33.3334 12.7033 33.1916 12.975 32.9333C13.5 32.5 24 22.3333 24 13.3333C24 9.79711 22.7357 6.40573 20.4853 3.90524C18.2348 1.40476 15.1826 0 12 0ZM12 29.4167C8.805 26.0833 3 18.9 3 13.3333C3 10.6812 3.94821 8.13763 5.63604 6.26227C7.32387 4.3869 9.61305 3.33333 12 3.33333C14.3869 3.33333 16.6761 4.3869 18.364 6.26227C20.0518 8.13763 21 10.6812 21 13.3333C21 18.9 15.195 26.1 12 29.4167ZM12 6.66667C10.8133 6.66667 9.65327 7.05766 8.66658 7.7902C7.67988 8.52275 6.91085 9.56394 6.45672 10.7821C6.0026 12.0003 5.88378 13.3407 6.11529 14.6339C6.3468 15.9271 6.91824 17.115 7.75736 18.0474C8.59647 18.9797 9.66557 19.6147 10.8295 19.8719C11.9933 20.1291 13.1997 19.9971 14.2961 19.4925C15.3925 18.9879 16.3295 18.1335 16.9888 17.0371C17.6481 15.9408 18 14.6519 18 13.3333C18 11.5652 17.3679 9.86953 16.2426 8.61929C15.1174 7.36905 13.5913 6.66667 12 6.66667ZM12 16.6667C11.4067 16.6667 10.8266 16.4712 10.3333 16.1049C9.83994 15.7386 9.45542 15.218 9.22836 14.6089C9.0013 13.9999 8.94189 13.3296 9.05764 12.683C9.1734 12.0364 9.45912 11.4425 9.87868 10.9763C10.2982 10.5101 10.8328 10.1927 11.4147 10.064C11.9967 9.93543 12.5999 10.0014 13.1481 10.2537C13.6962 10.506 14.1648 10.9333 14.4944 11.4814C14.8241 12.0296 15 12.6741 15 13.3333C15 14.2174 14.6839 15.0652 14.1213 15.6904C13.5587 16.3155 12.7956 16.6667 12 16.6667Z" fill="black"/>
<path d="M12 0C8.8174 0 5.76516 1.40476 3.51472 3.90524C1.26428 6.40573 0 9.79711 0 13.3333C0 22.3173 10.5374 32.4639 11.0225 32.9309L11.025 32.9333C11.2967 33.1916 11.6425 33.3334 12 33.3334C12.3575 33.3334 12.7033 33.1916 12.975 32.9333C13.5 32.5 24 22.3333 24 13.3333C24 9.79711 22.7357 6.40573 20.4853 3.90524C18.2348 1.40476 15.1826 0 12 0ZM12 29.4167C8.805 26.0833 3 18.9 3 13.3333C3 10.6812 3.94821 8.13763 5.63604 6.26227C7.32387 4.3869 9.61305 3.33333 12 3.33333C14.3869 3.33333 16.6761 4.3869 18.364 6.26227C20.0518 8.13763 21 10.6812 21 13.3333C21 18.9 15.195 26.1 12 29.4167ZM12 6.66667C10.8133 6.66667 9.65327 7.05766 8.66658 7.7902C7.67988 8.52275 6.91085 9.56394 6.45672 10.7821C6.0026 12.0003 5.88378 13.3407 6.11529 14.6339C6.3468 15.9271 6.91824 17.115 7.75736 18.0474C8.59647 18.9797 9.66557 19.6147 10.8295 19.8719C11.9933 20.1291 13.1997 19.9971 14.2961 19.4925C15.3925 18.9879 16.3295 18.1335 16.9888 17.0371C17.6481 15.9408 18 14.6519 18 13.3333C18 11.5652 17.3679 9.86953 16.2426 8.61929C15.1174 7.36905 13.5913 6.66667 12 6.66667ZM12 16.6667C11.4067 16.6667 10.8266 16.4712 10.3333 16.1049C9.83994 15.7386 9.45542 15.218 9.22836 14.6089C9.0013 13.9999 8.94189 13.3296 9.05764 12.683C9.1734 12.0364 9.45912 11.4425 9.87868 10.9763C10.2982 10.5101 10.8328 10.1927 11.4147 10.064C11.9967 9.93543 12.5999 10.0014 13.1481 10.2537C13.6962 10.506 14.1648 10.9333 14.4944 11.4814C14.8241 12.0296 15 12.6741 15 13.3333C15 14.2174 14.6839 15.0652 14.1213 15.6904C13.5587 16.3155 12.7956 16.6667 12 16.6667Z" stroke="#0C0C0C"/>
</svg>
