<svg width="32" height="32" viewBox="0 0 32 32" fill="none" xmlns="http://www.w3.org/2000/svg">
<path d="M23.2 0C20.4 0 17.7602 1.39517 16 3.66225C14.2398 1.39517 11.6 0 8.8 0C3.83985 0 0 4.18508 0 9.59125C0 16.2176 5.43985 21.5369 13.6797 29.7324L16 32L18.3203 29.7324C26.5601 21.5368 32 16.2175 32 9.59125C32 4.18508 28.1602 0 23.2 0ZM16.9874 27.4381L16.6628 27.7608L16 28.4086L15.3372 27.7609L15.0131 27.4385C11.1348 23.5817 7.78531 20.2507 5.57108 17.2723C3.42054 14.3796 2.46154 12.0107 2.46154 9.59125C2.46154 7.68583 3.10938 5.93033 4.28577 4.64825C5.45823 3.37042 7.06138 2.66667 8.8 2.66667C10.8103 2.66667 12.7977 3.68058 14.1162 5.37875L16 7.80508L17.8838 5.37875C19.2023 3.68058 21.1896 2.66667 23.2 2.66667C24.9387 2.66667 26.5418 3.37042 27.7143 4.64817C28.8906 5.93033 29.5385 7.68575 29.5385 9.59125C29.5385 12.0107 28.5795 14.3795 26.4291 17.2722C24.2149 20.2505 20.8656 23.5813 16.9874 27.4381Z" fill="#F04242"/>
</svg>
