<svg width="40" height="45" viewBox="0 0 40 45" fill="none" xmlns="http://www.w3.org/2000/svg">
<path d="M37.7777 13.5376L24.4445 1.71679C23.2222 0.611217 21.6399 0 20.0001 0C18.3602 0 16.7779 0.611217 15.5557 1.71679L2.22242 13.5376C1.51657 14.1761 0.953315 14.9592 0.570144 15.8349C0.186973 16.7107 -0.00731675 17.659 0.000210652 18.6166V38.2581C0.000210652 40.0461 0.702585 41.761 1.95282 43.0253C3.20305 44.2897 4.89873 45 6.66683 45H33.3333C35.1014 45 36.7971 44.2897 38.0473 43.0253C39.2976 41.761 39.9999 40.0461 39.9999 38.2581V18.5941C40.0043 17.6403 39.8085 16.6963 39.4254 15.8247C39.0423 14.9531 38.4808 14.1735 37.7777 13.5376ZM24.4445 40.5054H15.5557V29.2688C15.5557 28.6728 15.7898 28.1012 16.2065 27.6797C16.6233 27.2583 17.1885 27.0215 17.7779 27.0215H22.2223C22.8116 27.0215 23.3769 27.2583 23.7936 27.6797C24.2104 28.1012 24.4445 28.6728 24.4445 29.2688V40.5054ZM35.5555 38.2581C35.5555 38.8541 35.3214 39.4257 34.9046 39.8472C34.4879 40.2686 33.9227 40.5054 33.3333 40.5054H28.8889V29.2688C28.8889 27.4808 28.1865 25.7659 26.9363 24.5016C25.6861 23.2372 23.9904 22.5269 22.2223 22.5269H17.7779C16.0098 22.5269 14.3141 23.2372 13.0639 24.5016C11.8136 25.7659 11.1112 27.4808 11.1112 29.2688V40.5054H6.66683C6.07747 40.5054 5.51224 40.2686 5.09549 39.8472C4.67875 39.4257 4.44462 38.8541 4.44462 38.2581V18.5941C4.44502 18.275 4.51261 17.9597 4.64288 17.6691C4.77316 17.3784 4.96313 17.1192 5.20017 16.9086L18.5334 5.11023C18.9389 4.74994 19.4603 4.55125 20.0001 4.55125C20.5399 4.55125 21.0612 4.74994 21.4667 5.11023L34.8 16.9086C35.037 17.1192 35.227 17.3784 35.3573 17.6691C35.4875 17.9597 35.5551 18.275 35.5555 18.5941V38.2581Z" fill="#367CFF"/>
</svg>
