<svg width="51" height="43" viewBox="0 0 51 43" fill="none" xmlns="http://www.w3.org/2000/svg">
<path d="M47.6093 27.3828C48.5434 26.6603 48.8532 25.6406 48.8746 24.7521C48.8953 23.8869 48.6454 23.0615 48.3458 22.6363C48.2988 22.5693 48.2717 22.4957 48.2639 22.4219C48.2561 22.3481 48.2673 22.2729 48.2981 22.2017C48.3289 22.1302 48.3796 22.0628 48.4491 22.0074C48.5187 21.9518 48.6046 21.9105 48.7002 21.8898L49.5082 21.7143L49.1209 21.2515C49.1424 21.1515 49.1718 21.0147 49.2016 20.8514C49.2777 20.4338 49.3592 19.8318 49.3592 19.0615C49.3592 18.4876 49.0786 17.9769 48.7167 17.5602C48.3515 17.1398 47.8656 16.77 47.3591 16.4658C46.8501 16.1601 46.3012 15.9091 45.794 15.7336C45.296 15.5612 44.8015 15.4487 44.4095 15.4487H33.9364C33.7369 15.4487 33.5687 15.3638 33.4708 15.2416C33.3676 15.1127 33.3403 14.9585 33.3818 14.8233L33.3821 14.8223C34.7839 10.2168 34.48 6.03297 32.3653 3.42916C31.2367 2.03525 29.872 1.49309 28.9068 1.49309C28.329 1.49309 27.8119 1.67098 27.43 2.07733L27.2944 2.22167V2.41975V7.64184C27.2944 7.68892 27.287 7.73454 27.2647 7.80155C25.1222 13.5566 22.9675 17.5009 18.9107 19.8361L18.6602 19.9803L45.2439 32.7668L45.4679 33.2138C46.5336 32.6797 47.0402 31.643 47.2713 30.6345C47.5033 29.6221 47.4805 28.5501 47.4172 27.7954L47.4172 27.7951C47.411 27.7213 47.4236 27.6461 47.4557 27.5751C47.4877 27.5041 47.5393 27.4375 47.6093 27.3828ZM47.6093 27.3828C47.609 27.383 47.6088 27.3832 47.6085 27.3834L47.3027 26.9878L47.6099 27.3823C47.6097 27.3825 47.6095 27.3827 47.6093 27.3828ZM48.5941 21.4012L48.2172 21.7167L48.2107 21.7221C48.1858 21.6924 48.1664 21.6624 48.1514 21.6342C48.1477 21.6272 48.1442 21.6203 48.141 21.6136C48.2717 21.5103 48.427 21.4375 48.5941 21.4012ZM48.5941 21.4012L48.5896 21.3804C48.5896 21.3907 48.5911 21.3976 48.5941 21.4012ZM17.7817 19.2672L17.7822 19.267C21.9305 17.1147 23.9918 13.2933 26.0919 7.66644L26.1234 7.58188V7.49161V2.11127C26.1234 2.02477 26.1476 1.94111 26.196 1.86653L26.1964 1.86596C26.7496 1.01033 27.7162 0.5 28.8874 0.5C30.4058 0.5 32.0626 1.36028 33.2879 2.86175C34.5024 4.35872 36.3261 7.75839 34.8243 13.8357L34.6711 14.4556H35.3097H44.3923C45.2882 14.4556 46.8489 14.9003 48.188 15.7438C49.5343 16.5919 50.5 17.7393 50.5 19.0716C50.5 19.5772 50.4675 20.205 50.3522 20.811C50.2355 21.4248 50.0422 21.9703 49.7518 22.3487L49.5811 22.571L49.6818 22.8326C50.2045 24.1914 50.2775 26.3332 48.738 27.8223L48.5748 27.9801L48.5862 28.2068C48.724 30.9453 47.9787 32.7931 46.5619 33.7808L46.3527 33.9267L46.3479 34.1816C46.3223 35.5476 45.6341 37.257 44.599 38.3598L44.5968 38.3622C43.8808 39.135 43.0919 39.5 42.3291 39.5H22.4328C22.0719 39.5 21.5741 39.3865 21.0093 39.1643C20.4519 38.9451 19.8617 38.6329 19.3243 38.2671C18.785 37.9 18.315 37.49 17.9854 37.0815C17.6491 36.6647 17.5 36.3016 17.5 36.0178V19.7005C17.5 19.5341 17.5968 19.3629 17.7817 19.2672Z" fill="#5669FF" stroke="#1A2FD6"/>
<path d="M1.61111 17.6303V17.631V39.367C1.61111 40.5137 2.55755 41.4287 3.70289 41.4287H15.2971H15.2978C15.8491 41.428 16.3795 41.2129 16.7722 40.8276C17.1652 40.442 17.3881 39.9172 17.3889 39.3676V39.367V17.631V17.6303C17.3881 17.0808 17.1651 16.5561 16.7719 16.1708C16.379 15.7859 15.8484 15.5713 15.2971 15.5713H3.70289C3.15163 15.5713 2.62105 15.7859 2.22814 16.1708C1.83492 16.5561 1.61185 17.0808 1.61111 17.6303ZM15.2971 42.5H3.70345C2.8511 42.499 2.03581 42.1663 1.43596 41.5778C0.836487 40.9896 0.501033 40.1943 0.5 39.3667V17.631C0.5 15.9135 1.92819 14.5 3.70289 14.5H15.2971C17.0718 14.5 18.5 15.9135 18.5 17.631V39.367C18.5 41.0848 17.0714 42.5 15.2971 42.5Z" fill="#5669FF" stroke="#1A2FD6"/>
</svg>
