<svg width="36" height="40" viewBox="0 0 36 40" fill="none" xmlns="http://www.w3.org/2000/svg">
<path d="M18 0C13.2261 0 8.64773 1.6857 5.27208 4.68628C1.89642 7.68685 0 11.7565 0 15.9999C0 26.7807 15.8061 38.9564 16.5338 39.517L16.5375 39.5199C16.945 39.8297 17.4637 40 18 40C18.5363 40 19.055 39.8297 19.4625 39.5199C20.25 38.9999 36 26.7999 36 15.9999C36 11.7565 34.1036 7.68685 30.7279 4.68628C27.3523 1.6857 22.7739 0 18 0ZM18 35.2999C13.2075 31.2999 4.5 22.6799 4.5 15.9999C4.5 12.8174 5.92232 9.76512 8.45406 7.51469C10.9858 5.26427 14.4196 3.99999 18 3.99999C21.5804 3.99999 25.0142 5.26427 27.5459 7.51469C30.0777 9.76512 31.5 12.8174 31.5 15.9999C31.5 22.6799 22.7925 31.3199 18 35.2999ZM18 7.99997C16.22 7.99997 14.4799 8.46916 12.9999 9.34821C11.5198 10.2273 10.3663 11.4767 9.68508 12.9385C9.00389 14.4003 8.82566 16.0088 9.17293 17.5607C9.5202 19.1125 10.3774 20.538 11.636 21.6568C12.8947 22.7756 14.4984 23.5375 16.2442 23.8462C17.99 24.1549 19.7996 23.9965 21.4442 23.391C23.0887 22.7855 24.4943 21.7601 25.4832 20.4445C26.4722 19.1289 27 17.5822 27 15.9999C27 13.8782 26.0518 11.8434 24.364 10.3431C22.6761 8.84283 20.3869 7.99997 18 7.99997ZM18 19.9999C17.11 19.9999 16.24 19.7653 15.4999 19.3258C14.7599 18.8863 14.1831 18.2616 13.8425 17.5307C13.5019 16.7998 13.4128 15.9955 13.5865 15.2196C13.7601 14.4437 14.1887 13.7309 14.818 13.1715C15.4474 12.6121 16.2492 12.2312 17.1221 12.0768C17.995 11.9225 18.8998 12.0017 19.7221 12.3044C20.5443 12.6072 21.2471 13.1199 21.7416 13.7777C22.2361 14.4355 22.5 15.2088 22.5 15.9999C22.5 17.0608 22.0259 18.0782 21.182 18.8284C20.3381 19.5785 19.1935 19.9999 18 19.9999Z" fill="black"/>
<path d="M18 0C13.2261 0 8.64773 1.6857 5.27208 4.68628C1.89642 7.68685 0 11.7565 0 15.9999C0 26.7807 15.8061 38.9564 16.5338 39.517L16.5375 39.5199C16.945 39.8297 17.4637 40 18 40C18.5363 40 19.055 39.8297 19.4625 39.5199C20.25 38.9999 36 26.7999 36 15.9999C36 11.7565 34.1036 7.68685 30.7279 4.68628C27.3523 1.6857 22.7739 0 18 0ZM18 35.2999C13.2075 31.2999 4.5 22.6799 4.5 15.9999C4.5 12.8174 5.92232 9.76512 8.45406 7.51469C10.9858 5.26427 14.4196 3.99999 18 3.99999C21.5804 3.99999 25.0142 5.26427 27.5459 7.51469C30.0777 9.76512 31.5 12.8174 31.5 15.9999C31.5 22.6799 22.7925 31.3199 18 35.2999ZM18 7.99997C16.22 7.99997 14.4799 8.46916 12.9999 9.34821C11.5198 10.2273 10.3663 11.4767 9.68508 12.9385C9.00389 14.4003 8.82566 16.0088 9.17293 17.5607C9.5202 19.1125 10.3774 20.538 11.636 21.6568C12.8947 22.7756 14.4984 23.5375 16.2442 23.8462C17.99 24.1549 19.7996 23.9965 21.4442 23.391C23.0887 22.7855 24.4943 21.7601 25.4832 20.4445C26.4722 19.1289 27 17.5822 27 15.9999C27 13.8782 26.0518 11.8434 24.364 10.3431C22.6761 8.84283 20.3869 7.99997 18 7.99997ZM18 19.9999C17.11 19.9999 16.24 19.7653 15.4999 19.3258C14.7599 18.8863 14.1831 18.2616 13.8425 17.5307C13.5019 16.7998 13.4128 15.9955 13.5865 15.2196C13.7601 14.4437 14.1887 13.7309 14.818 13.1715C15.4474 12.6121 16.2492 12.2312 17.1221 12.0768C17.995 11.9225 18.8998 12.0017 19.7221 12.3044C20.5443 12.6072 21.2471 13.1199 21.7416 13.7777C22.2361 14.4355 22.5 15.2088 22.5 15.9999C22.5 17.0608 22.0259 18.0782 21.182 18.8284C20.3381 19.5785 19.1935 19.9999 18 19.9999Z" stroke="#0C0C0C"/>
</svg>
