<svg width="38" height="40" viewBox="0 0 38 40" fill="none" xmlns="http://www.w3.org/2000/svg">
<path d="M29.0848 21.5179L17.6562 32.9464C17.5074 33.0804 17.3363 33.1473 17.1429 33.1473C16.9494 33.1473 16.7783 33.0804 16.6295 32.9464L10.2009 26.5179C10.067 26.369 10 26.1979 10 26.0045C10 25.811 10.067 25.6473 10.2009 25.5134L11.2277 24.4866C11.3616 24.3527 11.5253 24.2857 11.7188 24.2857C11.9122 24.2857 12.0833 24.3527 12.2321 24.4866L17.1429 29.3973L27.0536 19.4866C27.2024 19.3527 27.3735 19.2857 27.567 19.2857C27.7604 19.2857 27.9241 19.3527 28.058 19.4866L29.0848 20.5134C29.2188 20.6473 29.2857 20.811 29.2857 21.0045C29.2857 21.1979 29.2188 21.369 29.0848 21.5179ZM2.85714 37.1429H34.2857V14.2857H2.85714V37.1429ZM11.4286 10V3.57143C11.4286 3.3631 11.3616 3.19196 11.2277 3.05804C11.0938 2.92411 10.9226 2.85714 10.7143 2.85714H9.28571C9.07738 2.85714 8.90625 2.92411 8.77232 3.05804C8.63839 3.19196 8.57143 3.3631 8.57143 3.57143V10C8.57143 10.2083 8.63839 10.3795 8.77232 10.5134C8.90625 10.6473 9.07738 10.7143 9.28571 10.7143H10.7143C10.9226 10.7143 11.0938 10.6473 11.2277 10.5134C11.3616 10.3795 11.4286 10.2083 11.4286 10ZM28.5714 10V3.57143C28.5714 3.3631 28.5045 3.19196 28.3705 3.05804C28.2366 2.92411 28.0655 2.85714 27.8571 2.85714H26.4286C26.2202 2.85714 26.0491 2.92411 25.9152 3.05804C25.7812 3.19196 25.7143 3.3631 25.7143 3.57143V10C25.7143 10.2083 25.7812 10.3795 25.9152 10.5134C26.0491 10.6473 26.2202 10.7143 26.4286 10.7143H27.8571C28.0655 10.7143 28.2366 10.6473 28.3705 10.5134C28.5045 10.3795 28.5714 10.2083 28.5714 10ZM37.1429 8.57143V37.1429C37.1429 37.9167 36.8601 38.5863 36.2946 39.1518C35.7292 39.7173 35.0595 40 34.2857 40H2.85714C2.08333 40 1.41369 39.7173 0.848214 39.1518C0.282738 38.5863 0 37.9167 0 37.1429V8.57143C0 7.79762 0.282738 7.12798 0.848214 6.5625C1.41369 5.99702 2.08333 5.71429 2.85714 5.71429H5.71429V3.57143C5.71429 2.58929 6.06399 1.74851 6.76339 1.04911C7.4628 0.349702 8.30357 0 9.28571 0H10.7143C11.6964 0 12.5372 0.349702 13.2366 1.04911C13.936 1.74851 14.2857 2.58929 14.2857 3.57143V5.71429H22.8571V3.57143C22.8571 2.58929 23.2068 1.74851 23.9062 1.04911C24.6057 0.349702 25.4464 0 26.4286 0H27.8571C28.8393 0 29.6801 0.349702 30.3795 1.04911C31.0789 1.74851 31.4286 2.58929 31.4286 3.57143V5.71429H34.2857C35.0595 5.71429 35.7292 5.99702 36.2946 6.5625C36.8601 7.12798 37.1429 7.79762 37.1429 8.57143Z" fill="#212861"/>
</svg>
