<svg width="51" height="40" viewBox="0 0 51 40" fill="none" xmlns="http://www.w3.org/2000/svg">
<mask id="path-1-inside-1_186_53" fill="white">
<path d="M49.725 0H1.275C0.57375 0 0 0.666667 0 1.48148V38.5185C0 39.3333 0.57375 40 1.275 40H49.725C50.4263 40 51 39.3333 51 38.5185V1.48148C51 0.666667 50.4263 0 49.725 0ZM46.665 2.96296L25.5 27.5556L4.335 2.96296H46.665ZM2.55 5.03704L15.4275 20L2.55 34.963V5.03704ZM4.39875 37.037L17.2125 22.1481L24.6075 30.7407C25.1175 31.3333 25.8825 31.3333 26.3925 30.7407L33.7875 22.1481L46.6012 37.037H4.39875ZM48.45 34.963L35.5725 20L48.45 5.03704V34.963Z"/>
</mask>
<path d="M49.725 0H1.275C0.57375 0 0 0.666667 0 1.48148V38.5185C0 39.3333 0.57375 40 1.275 40H49.725C50.4263 40 51 39.3333 51 38.5185V1.48148C51 0.666667 50.4263 0 49.725 0ZM46.665 2.96296L25.5 27.5556L4.335 2.96296H46.665ZM2.55 5.03704L15.4275 20L2.55 34.963V5.03704ZM4.39875 37.037L17.2125 22.1481L24.6075 30.7407C25.1175 31.3333 25.8825 31.3333 26.3925 30.7407L33.7875 22.1481L46.6012 37.037H4.39875ZM48.45 34.963L35.5725 20L48.45 5.03704V34.963Z" fill="white"/>
<path d="M46.665 2.96296L49.6968 5.57221L55.3849 -1.03704H46.665V2.96296ZM25.5 27.5556L22.4682 30.1648L25.5 33.6876L28.5318 30.1648L25.5 27.5556ZM4.335 2.96296V-1.03704H-4.38489L1.3032 5.57221L4.335 2.96296ZM2.55 5.03704L5.5818 2.42779L-1.45 -5.74279V5.03704H2.55ZM15.4275 20L18.4593 22.6092L20.7049 20L18.4593 17.3908L15.4275 20ZM2.55 34.963H-1.45V45.7428L5.5818 37.5722L2.55 34.963ZM4.39875 37.037L1.36695 34.4278L-4.32114 41.037H4.39875V37.037ZM17.2125 22.1481L20.2443 19.5389L17.2125 16.0161L14.1807 19.5389L17.2125 22.1481ZM33.7875 22.1481L36.8193 19.5389L33.7875 16.0161L30.7557 19.5389L33.7875 22.1481ZM46.6012 37.037V41.037H55.3211L49.6331 34.4278L46.6012 37.037ZM48.45 34.963L45.4182 37.5722L52.45 45.7428V34.963H48.45ZM35.5725 20L32.5407 17.3908L30.2951 20L32.5407 22.6092L35.5725 20ZM48.45 5.03704H52.45V-5.74279L45.4182 2.42779L48.45 5.03704ZM49.725 -4H1.275V4H49.725V-4ZM1.275 -4C-2.17773 -4 -4 -0.95799 -4 1.48148H4C4 2.00426 3.81755 2.56662 3.40634 3.04443C2.98985 3.52836 2.25107 4 1.275 4V-4ZM-4 1.48148V38.5185H4V1.48148H-4ZM-4 38.5185C-4 40.958 -2.17773 44 1.275 44V36C2.25107 36 2.98985 36.4716 3.40634 36.9556C3.81755 37.4334 4 37.9957 4 38.5185H-4ZM1.275 44H49.725V36H1.275V44ZM49.725 44C53.1777 44 55 40.958 55 38.5185H47C47 37.9957 47.1824 37.4334 47.5937 36.9556C48.0101 36.4716 48.7489 36 49.725 36V44ZM55 38.5185V1.48148H47V38.5185H55ZM55 1.48148C55 -0.95799 53.1777 -4 49.725 -4V4C48.7489 4 48.0101 3.52836 47.5937 3.04443C47.1824 2.56662 47 2.00426 47 1.48148H55ZM43.6332 0.353717L22.4682 24.9463L28.5318 30.1648L49.6968 5.57221L43.6332 0.353717ZM28.5318 24.9463L7.3668 0.353717L1.3032 5.57221L22.4682 30.1648L28.5318 24.9463ZM4.335 6.96296H46.665V-1.03704H4.335V6.96296ZM-0.481804 7.64628L12.3957 22.6092L18.4593 17.3908L5.5818 2.42779L-0.481804 7.64628ZM12.3957 17.3908L-0.481804 32.3537L5.5818 37.5722L18.4593 22.6092L12.3957 17.3908ZM6.55 34.963V5.03704H-1.45V34.963H6.55ZM7.43055 39.6463L20.2443 24.7574L14.1807 19.5389L1.36695 34.4278L7.43055 39.6463ZM14.1807 24.7574L21.5757 33.35L27.6393 28.1315L20.2443 19.5389L14.1807 24.7574ZM21.5757 33.35C22.4926 34.4154 23.8741 35.1852 25.5 35.1852C27.1259 35.1852 28.5074 34.4154 29.4243 33.35L23.3607 28.1315C23.7676 27.6587 24.5116 27.1852 25.5 27.1852C26.4884 27.1852 27.2324 27.6587 27.6393 28.1315L21.5757 33.35ZM29.4243 33.35L36.8193 24.7574L30.7557 19.5389L23.3607 28.1315L29.4243 33.35ZM30.7557 24.7574L43.5694 39.6463L49.6331 34.4278L36.8193 19.5389L30.7557 24.7574ZM46.6012 33.037H4.39875V41.037H46.6012V33.037ZM51.4818 32.3537L38.6043 17.3908L32.5407 22.6092L45.4182 37.5722L51.4818 32.3537ZM38.6043 22.6092L51.4818 7.64628L45.4182 2.42779L32.5407 17.3908L38.6043 22.6092ZM44.45 5.03704V34.963H52.45V5.03704H44.45Z" fill="white" mask="url(#path-1-inside-1_186_53)"/>
</svg>
