<svg width="50" height="47" viewBox="0 0 50 47" fill="none" xmlns="http://www.w3.org/2000/svg">
<path d="M10.1002 35.9383C10.4555 34.918 10.0426 33.8125 9.2013 33.1799C8.81164 32.8869 8.42705 32.5888 8.05407 32.2736C5.93252 30.4968 4.1702 28.3718 3.09049 25.6705C1.33714 21.292 1.7321 17.0654 4.03065 13.0465C6.41491 8.87805 9.95371 6.27014 14.0987 4.61017C20.9694 1.85653 27.9201 1.72028 34.8677 4.256C38.932 5.73888 42.4744 8.11889 45.1 11.9156C48.8641 17.3648 48.6013 24.3315 44.4655 29.4962C41.1143 33.6801 36.78 35.9533 31.9203 37.2048C29.2821 37.8851 22.4557 36.7219 20.6995 38.2828C16.9998 41.6729 12.755 43.8172 8.03989 44.8992C7.61094 44.9966 7.17126 45.0588 6.73689 45.1268C6.18641 45.2146 5.73601 45.0492 5.4536 44.4887C5.17299 43.9282 5.27485 43.4184 5.62518 42.9551C6.03267 42.4181 6.44737 41.8848 6.89238 41.3905C8.30199 39.8313 9.39189 37.9724 10.1002 35.9383Z" stroke="#5669FF" stroke-width="3" stroke-linecap="round"/>
</svg>
