<svg width="31" height="36" viewBox="0 0 31 36" fill="none" xmlns="http://www.w3.org/2000/svg">
<path d="M15.5881 6.92484C16.2119 6.92484 17.6939 7.30393 17.6939 7.30393C21.7088 8.18812 24.5348 11.7422 24.5348 15.7549V26.5555L25.3557 27.3481L26.0416 28.0102H4.95842L5.64429 27.3481L6.46517 26.5555V15.7549C6.46517 11.7423 9.29119 8.18812 13.3061 7.30393C13.3061 7.30393 14.8951 6.92484 15.4119 6.92484M15.5 0.791138C13.9498 0.791138 12.7647 1.93526 12.7647 3.4318V4.66402C7.56735 5.80857 3.64699 10.3855 3.64699 15.7549V25.4373L0 28.9582V30.7186H31V28.9582L27.353 25.4373V15.7549C27.353 10.3855 23.4326 5.80857 18.2353 4.66402V3.4318C18.2353 1.93526 17.0502 0.791138 15.5 0.791138ZM19.147 32.4791H11.8529C11.8529 34.4157 13.4939 36 15.5 36C17.5061 36 19.147 34.4157 19.147 32.4791Z" fill="#5669FF"/>
</svg>
