<svg width="36" height="46" viewBox="0 0 36 46" fill="none" xmlns="http://www.w3.org/2000/svg">
<path d="M18 20.9502C20.0343 20.9502 22.023 20.3637 23.7144 19.2649C25.4059 18.1661 26.7243 16.6043 27.5028 14.777C28.2813 12.9498 28.485 10.9391 28.0881 8.9993C27.6912 7.05949 26.7116 5.27766 25.2731 3.87913C23.8346 2.48061 22.0019 1.5282 20.0066 1.14235C18.0114 0.756495 15.9433 0.954528 14.0638 1.7114C12.1844 2.46828 10.578 3.75001 9.44774 5.3945C8.31753 7.03899 7.71429 8.97239 7.71429 10.9502C7.71429 13.6024 8.79796 16.1459 10.7269 18.0213C12.6558 19.8966 15.2721 20.9502 18 20.9502ZM33.4286 45.9502C34.1106 45.9502 34.7646 45.6868 35.2468 45.218C35.7291 44.7491 36 44.1132 36 43.4502C36 38.8089 34.1036 34.3577 30.7279 31.0758C27.3523 27.7939 22.7739 25.9502 18 25.9502C13.2261 25.9502 8.64773 27.7939 5.27208 31.0758C1.89642 34.3577 7.11366e-08 38.8089 0 43.4502C0 44.1132 0.270918 44.7491 0.753154 45.218C1.23539 45.6868 1.88944 45.9502 2.57143 45.9502H33.4286Z" fill="#212861"/>
</svg>
