<svg width="32" height="32" viewBox="0 0 32 32" fill="none" xmlns="http://www.w3.org/2000/svg">
<path d="M24.2584 31.9997C23.8398 31.9997 23.4188 31.8943 23.0309 31.682L16.0349 27.8449L8.96853 31.6807C8.53377 31.9217 8.04261 32.0299 7.55152 31.9929C7.06042 31.9558 6.58933 31.775 6.19239 31.4712C5.79285 31.1713 5.48254 30.7601 5.29711 30.2846C5.11168 29.8091 5.05866 29.2887 5.14414 28.7832L6.48037 20.6605L0.798837 14.8374C0.444621 14.4805 0.19414 14.0267 0.0761805 13.5281C-0.041779 13.0295 -0.022431 12.5062 0.132001 12.0186C0.282717 11.5301 0.5623 11.0958 0.938736 10.7653C1.31517 10.4349 1.77324 10.2216 2.2605 10.1501L10.0808 8.96488L13.6364 1.53085C14.0843 0.585914 14.9892 0 16.0004 0C17.0115 0 17.9164 0.585914 18.3644 1.53085L21.8624 8.92084L29.7402 10.1501C30.2275 10.2216 30.6856 10.4349 31.062 10.7653C31.4384 11.0958 31.718 11.5301 31.8687 12.0186C32.0226 12.5063 32.0416 13.0294 31.9237 13.5279C31.8057 14.0264 31.5556 14.4802 31.2019 14.8374L25.5421 20.5897L26.8566 28.7845C26.9413 29.29 26.8879 29.8101 26.7026 30.2854C26.5172 30.7608 26.2073 31.1721 25.8084 31.4725C25.3577 31.8138 24.8153 31.9982 24.2584 31.9997ZM2.58432 12.9261L8.24282 18.6785C8.86357 19.3111 9.14771 20.2187 9.0018 21.1102L7.66685 29.2343L8.37337 30.4995L7.77693 29.3184L14.7717 25.4826C15.15 25.2753 15.5709 25.1669 15.9983 25.1667C16.4257 25.1664 16.8467 25.2744 17.2253 25.4812L24.2213 29.3184L24.3313 29.2343L22.9951 21.1116C22.9233 20.6724 22.9547 20.2215 23.0867 19.7978C23.2187 19.374 23.4472 18.9899 23.7528 18.6785L29.4126 12.9261L29.3704 12.7887L21.5501 11.6035C21.1272 11.5389 20.7256 11.3683 20.3799 11.1064C20.0341 10.8444 19.7545 10.4988 19.5649 10.0993L16.0669 2.70935C16.0567 2.688 16.0452 2.66664 15.9978 2.66664L12.4307 10.0993C12.2418 10.4987 11.9626 10.8443 11.6173 11.1063C11.2719 11.3684 10.8707 11.539 10.4481 11.6035L2.62527 12.7887L1.68966 13.8804L2.58432 12.9261Z" fill="#1A2FD6"/>
<path d="M24.2584 31.9997C23.8398 31.9997 23.4188 31.8943 23.0309 31.682L16.0349 27.8449L8.96853 31.6807C8.53377 31.9217 8.04261 32.0299 7.55152 31.9929C7.06042 31.9558 6.58933 31.775 6.19239 31.4712C5.79285 31.1713 5.48254 30.7601 5.29711 30.2846C5.11168 29.8091 5.05866 29.2887 5.14414 28.7832L6.48037 20.6605L0.798837 14.8374C0.444621 14.4805 0.19414 14.0267 0.0761805 13.5281C-0.041779 13.0295 -0.022431 12.5062 0.132001 12.0186C0.282717 11.5301 0.5623 11.0958 0.938736 10.7653C1.31517 10.4349 1.77324 10.2216 2.2605 10.1501L10.0808 8.96488L13.6364 1.53085C14.0843 0.585914 14.9892 0 16.0004 0C17.0115 0 17.9164 0.585914 18.3644 1.53085L21.8624 8.92084L29.7402 10.1501C30.2275 10.2216 30.6856 10.4349 31.062 10.7653C31.4384 11.0958 31.718 11.5301 31.8687 12.0186C32.0226 12.5063 32.0416 13.0294 31.9237 13.5279C31.8057 14.0264 31.5556 14.4802 31.2019 14.8374L25.5421 20.5897L26.8566 28.7845C26.9413 29.29 26.8879 29.8101 26.7026 30.2854C26.5172 30.7608 26.2073 31.1721 25.8084 31.4725C25.3577 31.8138 24.8153 31.9982 24.2584 31.9997ZM2.58432 12.9261L8.24282 18.6785C8.86357 19.3111 9.14771 20.2187 9.0018 21.1102L7.66685 29.2343L8.37337 30.4995L7.77693 29.3184L14.7717 25.4826C15.15 25.2753 15.5709 25.1669 15.9983 25.1667C16.4257 25.1664 16.8467 25.2744 17.2253 25.4812L24.2213 29.3184L24.3313 29.2343L22.9951 21.1116C22.9233 20.6724 22.9547 20.2215 23.0867 19.7978C23.2187 19.374 23.4472 18.9899 23.7528 18.6785L29.4126 12.9261L29.3704 12.7887L21.5501 11.6035C21.1272 11.5389 20.7256 11.3683 20.3799 11.1064C20.0341 10.8444 19.7545 10.4988 19.5649 10.0993L16.0669 2.70935C16.0567 2.688 16.0452 2.66664 15.9978 2.66664L12.4307 10.0993C12.2418 10.4987 11.9626 10.8443 11.6173 11.1063C11.2719 11.3684 10.8707 11.539 10.4481 11.6035L2.62527 12.7887L1.68966 13.8804L2.58432 12.9261Z" stroke="black"/>
</svg>
