<svg width="36" height="36" viewBox="0 0 36 36" fill="none" xmlns="http://www.w3.org/2000/svg">
<path d="M23.5767 19.1408L19.8 16.9611V9C19.8 8.52261 19.6104 8.06477 19.2728 7.72721C18.9352 7.38964 18.4774 7.2 18 7.2C17.5226 7.2 17.0648 7.38964 16.7272 7.72721C16.3896 8.06477 16.2 8.52261 16.2 9V18C16.1999 18.316 16.2831 18.6265 16.441 18.9002C16.599 19.1739 16.8263 19.4012 17.1 19.5592L21.7767 22.2592C21.9814 22.3775 22.2075 22.4543 22.4419 22.4853C22.6764 22.5162 22.9147 22.5006 23.1431 22.4395C23.3716 22.3783 23.5857 22.2727 23.7733 22.1288C23.961 21.9848 24.1184 21.8053 24.2366 21.6005C24.3549 21.3956 24.4316 21.1695 24.4624 20.935C24.4932 20.7006 24.4775 20.4623 24.4162 20.2339C24.3549 20.0055 24.2493 19.7914 24.1052 19.6038C23.9611 19.4163 23.7815 19.2589 23.5767 19.1408ZM18 0C14.4399 0 10.9598 1.05568 7.99974 3.03355C5.03966 5.01141 2.73255 7.82263 1.37018 11.1117C0.00779911 14.4008 -0.348661 18.02 0.345873 21.5116C1.04041 25.0033 2.75474 28.2106 5.27209 30.7279C7.78943 33.2453 10.9967 34.9596 14.4884 35.6541C17.98 36.3487 21.5992 35.9922 24.8883 34.6298C28.1774 33.2674 30.9886 30.9603 32.9665 28.0003C34.9443 25.0402 36 21.5601 36 18C35.9947 13.2277 34.0966 8.65244 30.7221 5.27794C27.3476 1.90343 22.7723 0.00530744 18 0ZM18 32.4C15.152 32.4 12.3679 31.5554 9.99979 29.9732C7.63173 28.3909 5.78604 26.1419 4.69614 23.5106C3.60624 20.8794 3.32107 17.984 3.8767 15.1907C4.43233 12.3974 5.80379 9.83154 7.81767 7.81766C9.83154 5.80378 12.3974 4.43232 15.1907 3.87669C17.984 3.32106 20.8794 3.60623 23.5106 4.69613C26.1419 5.78604 28.3909 7.63172 29.9732 9.99979C31.5555 12.3679 32.4 15.1519 32.4 18C32.3956 21.8178 30.8771 25.4779 28.1775 28.1775C25.4779 30.8771 21.8178 32.3956 18 32.4Z" fill="#0C0C0C"/>
</svg>
