<svg width="51" height="40" viewBox="0 0 51 40" fill="none" xmlns="http://www.w3.org/2000/svg">
<path d="M50.9883 14.0973C51.1028 10.396 50.3776 6.72245 48.88 3.41768C47.8639 2.06165 46.4538 1.14655 44.8953 0.831826C38.4491 0.178963 31.9762 -0.0886238 25.5043 0.0302113C19.0561 -0.0940175 12.6065 0.164935 6.1829 0.805968C4.91292 1.06382 3.73764 1.72871 2.80049 2.7195C0.71544 4.86576 0.483768 8.53767 0.252096 11.6407C-0.084032 17.2198 -0.084032 22.8179 0.252096 28.397C0.319119 30.1435 0.552097 31.8771 0.947112 33.5687C1.22645 34.8748 1.79161 36.0831 2.59198 37.0855C3.53551 38.1288 4.73816 38.8315 6.04389 39.1025C11.0385 39.7906 16.0712 40.0758 21.1026 39.9558C29.2111 40.0851 36.3234 39.9558 44.7331 39.2318C46.0709 38.9774 47.3074 38.2738 48.2777 37.2148C48.9263 36.4905 49.4108 35.6041 49.6909 34.6289C50.5194 31.7913 50.9264 28.8214 50.8956 25.837C50.9883 24.389 50.9883 15.6488 50.9883 14.0973ZM20.2686 27.3885V11.3821L33.9835 19.4241C30.1378 21.8031 25.0642 24.4924 20.2686 27.3885Z" fill="white"/>
</svg>
