<svg width="40" height="40" viewBox="0 0 40 40" fill="none" xmlns="http://www.w3.org/2000/svg">
<path d="M40 4.79227C38.4967 5.59342 36.9069 6.12304 35.28 6.36463C36.9963 5.10507 38.2825 3.12356 38.9 0.787656C37.2871 1.96708 35.5215 2.79806 33.68 3.24447C32.4491 1.60472 30.8099 0.513221 29.0196 0.141148C27.2293 -0.230924 25.3891 0.13748 23.7876 1.18858C22.1861 2.23969 20.9139 3.91403 20.1705 5.94903C19.4271 7.98402 19.2546 10.2646 19.68 12.433C16.4189 12.2303 13.2289 11.1873 10.3173 9.37144C7.40574 7.55562 4.83769 5.00772 2.78 1.89322C2.05828 3.44143 1.67904 5.19475 1.68 6.97884C1.67744 8.63567 2.00843 10.2676 2.64351 11.7293C3.27859 13.1909 4.19804 14.437 5.32 15.3566C4.01595 15.313 2.73977 14.8832 1.6 14.1036V14.2264C1.60977 16.5479 2.27199 18.7939 3.47463 20.5846C4.67727 22.3753 6.34651 23.6008 8.2 24.0537C7.48651 24.3204 6.74575 24.4611 6 24.4714C5.48378 24.464 4.96884 24.4065 4.46 24.2994C4.98782 26.2963 6.00925 28.0415 7.38215 29.292C8.75505 30.5426 10.4112 31.2364 12.12 31.2768C9.23441 34.0659 5.67177 35.5881 2 35.6008C1.33147 35.6035 0.663471 35.5542 0 35.4534C3.74886 38.4267 8.11763 40.0052 12.58 39.9985C15.6594 40.0377 18.7143 39.3229 21.5662 37.8956C24.4182 36.4684 27.01 34.3573 29.1904 31.6858C31.3708 29.0143 33.0959 25.8359 34.2651 22.3362C35.4343 18.8365 36.0241 15.0857 36 11.3028C36 10.8852 36 10.4429 36 10.0007C37.5694 8.56302 38.9229 6.80053 40 4.79227Z" fill="white"/>
</svg>
