<svg width="40" height="40" viewBox="0 0 40 40" fill="none" xmlns="http://www.w3.org/2000/svg">
<path d="M37.0423 0.000279658H2.95775C2.5746 -0.00500951 2.19417 0.0647738 1.83816 0.205644C1.48215 0.346515 1.15755 0.555713 0.882892 0.821292C0.608233 1.08687 0.388896 1.40363 0.237408 1.75347C0.0859203 2.10332 0.00524828 2.4794 0 2.86024V37.1398C0.00524828 37.5206 0.0859203 37.8967 0.237408 38.2465C0.388896 38.5964 0.608233 38.9131 0.882892 39.1787C1.15755 39.4443 1.48215 39.6535 1.83816 39.7944C2.19417 39.9352 2.5746 40.005 2.95775 39.9997H37.0423C37.4254 40.005 37.8058 39.9352 38.1618 39.7944C38.5178 39.6535 38.8424 39.4443 39.1171 39.1787C39.3918 38.9131 39.6111 38.5964 39.7626 38.2465C39.9141 37.8967 39.9948 37.5206 40 37.1398V2.86024C39.9948 2.4794 39.9141 2.10332 39.7626 1.75347C39.6111 1.40363 39.3918 1.08687 39.1171 0.821292C38.8424 0.555713 38.5178 0.346515 38.1618 0.205644C37.8058 0.0647738 37.4254 -0.00500951 37.0423 0.000279658ZM12.1328 33.4798H6.09658V15.4801H12.1328V33.4798ZM9.11469 12.9601C8.28222 12.9601 7.48384 12.6314 6.8952 12.0463C6.30655 11.4612 5.97586 10.6676 5.97586 9.84014C5.97586 9.01268 6.30655 8.21911 6.8952 7.634C7.48384 7.0489 8.28222 6.72019 9.11469 6.72019C9.55673 6.67036 10.0044 6.71389 10.4283 6.84795C10.8523 6.98201 11.2429 7.20356 11.5748 7.4981C11.9066 7.79264 12.1721 8.15352 12.3539 8.55712C12.5356 8.96073 12.6296 9.39794 12.6296 9.84014C12.6296 10.2823 12.5356 10.7196 12.3539 11.1232C12.1721 11.5268 11.9066 11.8876 11.5748 12.1822C11.2429 12.4767 10.8523 12.6983 10.4283 12.8323C10.0044 12.9664 9.55673 13.0099 9.11469 12.9601ZM33.9034 33.4798H27.8672V23.8199C27.8672 21.4 27.002 19.82 24.8089 19.82C24.1301 19.8249 23.4692 20.0366 22.9152 20.4263C22.3611 20.8161 21.9406 21.3653 21.7103 22C21.5528 22.47 21.4846 22.9651 21.5091 23.46V33.4598H15.4728C15.4728 33.4598 15.4728 17.1 15.4728 15.4601H21.5091V18C22.0574 17.0543 22.8549 16.2751 23.8158 15.7465C24.7766 15.2178 25.8643 14.9598 26.9618 15.0001C30.9859 15.0001 33.9034 17.58 33.9034 23.12V33.4798Z" fill="white"/>
</svg>
